<?xml version="1.0" encoding="UTF-8" standalone="no"?>
<svg
   xmlns:dc="http://purl.org/dc/elements/1.1/"
   xmlns:cc="http://creativecommons.org/ns#"
   xmlns:rdf="http://www.w3.org/1999/02/22-rdf-syntax-ns#"
   xmlns:svg="http://www.w3.org/2000/svg"
   xmlns="http://www.w3.org/2000/svg"
   width="511pt"
   height="461pt"
   viewBox="0 0 511 461"
   version="1.1"
   id="svg2">
  <metadata
     id="metadata106">
    <rdf:RDF>
      <cc:Work
         rdf:about="">
        <dc:format>image/svg+xml</dc:format>
        <dc:type
           rdf:resource="http://purl.org/dc/dcmitype/StillImage" />
        <dc:title></dc:title>
      </cc:Work>
    </rdf:RDF>
  </metadata>
  <defs
     id="defs4">
    <clipPath
       id="clip1">
      <path
         d="M 0 365 L 95.21875 365 L 95.21875 460 L 0 460 Z M 0 365 "
         id="path7" />
    </clipPath>
  </defs>
  <g
     id="surface1">
    <path
       style="fill-rule:nonzero;fill:rgb(50.196078%,100%,50.196078%);fill-opacity:1;stroke-width:0.3985;stroke-linecap:butt;stroke-linejoin:miter;stroke:rgb(0%,0%,0%);stroke-opacity:1;stroke-miterlimit:10;"
       d="M 12.452195 0.000873915 C 12.452195 6.879331 6.877452 12.453457 -0.000886986 12.453457 C -6.876272 12.453457 -12.453969 6.879331 -12.453969 0.000873915 C -12.453969 -6.878566 -6.876272 -12.452692 -0.000886986 -12.452692 C 6.877452 -12.452692 12.452195 -6.878566 12.452195 0.000873915 Z M 12.452195 0.000873915 "
       transform="matrix(3.967391,0,0,-3.974138,272.964457,215.382379)"
       id="path10" />
    <path
       style=" stroke:none;fill-rule:nonzero;fill:rgb(0%,0%,0%);fill-opacity:1;"
       d="M 253.871094 212.148438 C 254.242188 211.773438 254.242188 211.589844 254.242188 211.527344 C 254.242188 211.339844 254.117188 211.09375 253.992188 210.96875 L 245.875 199.230469 L 254.984375 199.230469 C 261.679688 199.230469 263.664062 200.660156 264.46875 206.929688 L 265.460938 206.929688 L 264.347656 197.988281 L 242.402344 197.988281 C 241.472656 197.988281 241.410156 197.988281 241.410156 198.921875 L 251.265625 213.265625 L 241.84375 224.007812 C 241.410156 224.441406 241.410156 224.503906 241.410156 224.628906 C 241.410156 225.0625 241.84375 225.0625 242.402344 225.0625 L 264.347656 225.0625 L 265.460938 215.6875 L 264.46875 215.6875 C 263.789062 222.332031 261.0625 223.386719 254.863281 223.386719 L 243.953125 223.386719 Z M 253.871094 212.148438 "
       id="path12" />
    <path
       style="fill:#000000;fill-opacity:1;fill-rule:nonzero;stroke:none"
       d="m 287.68008,223.05036 c -0.125,0.55859 -0.1836,0.62109 -0.1836,0.80859 0,0.86719 0.74219,1.11719 1.17579,1.11719 0.1875,0 1.05468,-0.125 1.42578,-1.05469 0.125,-0.3125 0.30859,-1.61719 1.42578,-7.20312 0.30859,0 0.62109,0.0625 1.30078,0.0625 6.57031,0 12.64844,-6.21094 12.64844,-12.48438 0,-3.10547 -1.55078,-5.46484 -4.52735,-5.46484 -5.70312,0 -8.12109,7.70312 -10.47656,15.40234 -4.27734,-0.80859 -6.50781,-2.98047 -6.50781,-5.83984 0,-1.11719 0.92969,-5.46094 3.28515,-8.19531 0.3711,-0.3711 0.3711,-0.4336 0.3711,-0.5586 0,-0.125 -0.1211,-0.37109 -0.4961,-0.37109 -1.11328,0 -4.15234,5.77344 -4.15234,9.5625 0,3.72656 2.60547,6.58203 6.82031,7.57422 z m 5.51953,-8.57031 c -0.375,0 -0.4375,0 -0.74609,-0.0625 -0.4961,0 -0.4961,0 -0.4961,-0.1211 0,-0.0625 0.6836,-3.72656 0.7461,-4.28515 1.23828,-5.09375 4.33593,-8.87891 7.87109,-8.87891 2.72656,0 3.78125,2.10937 3.78125,4.03516 0,4.46875 -5.08203,9.3125 -11.15625,9.3125 z m 0,0"
       id="path14" />
    <path
       style="fill-rule:nonzero;fill:rgb(100%,50.196078%,50.196078%);fill-opacity:1;stroke-width:0.3985;stroke-linecap:butt;stroke-linejoin:miter;stroke:rgb(0%,0%,0%);stroke-opacity:1;stroke-miterlimit:10;"
       d="M -50.884449 42.519922 C -50.884449 45.727182 -53.485733 48.328965 -56.692539 48.328965 C -59.899346 48.328965 -62.501615 45.727182 -62.501615 42.519922 C -62.501615 39.313645 -59.899346 36.711862 -56.692539 36.711862 C -53.485733 36.711862 -50.884449 39.313645 -50.884449 42.519922 Z M -50.884449 42.519922 "
       transform="matrix(3.967391,0,0,-3.974138,272.964457,215.382379)"
       id="path16" />
    <path
       style=" stroke:none;fill-rule:nonzero;fill:rgb(0%,0%,0%);fill-opacity:1;"
       d="M 41.085938 39.972656 C 41.335938 38.980469 42.265625 35.316406 44.992188 35.316406 C 45.179688 35.316406 46.171875 35.316406 46.976562 35.8125 C 45.859375 36.0625 45.117188 36.992188 45.117188 37.984375 C 45.117188 38.605469 45.550781 39.351562 46.605469 39.351562 C 47.472656 39.351562 48.710938 38.667969 48.710938 37.054688 C 48.710938 35.003906 46.417969 34.445312 45.054688 34.445312 C 42.761719 34.445312 41.398438 36.558594 40.902344 37.425781 C 39.910156 34.820312 37.800781 34.445312 36.625 34.445312 C 32.53125 34.445312 30.238281 39.539062 30.238281 40.53125 C 30.238281 40.96875 30.671875 40.96875 30.734375 40.96875 C 31.042969 40.96875 31.167969 40.84375 31.230469 40.53125 C 32.59375 36.308594 35.199219 35.316406 36.5625 35.316406 C 37.304688 35.316406 38.667969 35.6875 38.667969 37.984375 C 38.667969 39.226562 37.988281 41.835938 36.5625 47.425781 C 35.941406 49.847656 34.515625 51.523438 32.78125 51.523438 C 32.53125 51.523438 31.664062 51.523438 30.796875 51.027344 C 31.789062 50.777344 32.65625 49.972656 32.65625 48.851562 C 32.65625 47.796875 31.789062 47.488281 31.230469 47.488281 C 29.992188 47.488281 29.0625 48.480469 29.0625 49.785156 C 29.0625 51.585938 30.980469 52.390625 32.71875 52.390625 C 35.382812 52.390625 36.808594 49.597656 36.871094 49.410156 C 37.367188 50.839844 38.792969 52.390625 41.148438 52.390625 C 45.238281 52.390625 47.472656 47.300781 47.472656 46.308594 C 47.472656 45.871094 47.160156 45.871094 47.039062 45.871094 C 46.664062 45.871094 46.605469 46.058594 46.480469 46.308594 C 45.179688 50.589844 42.511719 51.523438 41.273438 51.523438 C 39.722656 51.523438 39.101562 50.28125 39.101562 48.914062 C 39.101562 48.046875 39.289062 47.175781 39.722656 45.4375 Z M 41.085938 39.972656 "
       id="path18" />
    <path
       style=" stroke:none;fill-rule:nonzero;fill:rgb(0%,0%,0%);fill-opacity:1;"
       d="M 64.730469 49.078125 C 64.730469 46.035156 64.359375 43.800781 63.121094 41.875 C 62.25 40.632812 60.515625 39.515625 58.347656 39.515625 C 51.898438 39.515625 51.898438 47.089844 51.898438 49.078125 C 51.898438 51.066406 51.898438 58.453125 58.347656 58.453125 C 64.730469 58.453125 64.730469 51.066406 64.730469 49.078125 Z M 58.347656 57.648438 C 57.042969 57.648438 55.371094 56.902344 54.8125 54.667969 C 54.441406 53.050781 54.441406 50.753906 54.441406 48.703125 C 54.441406 46.65625 54.441406 44.542969 54.8125 43.054688 C 55.433594 40.882812 57.167969 40.261719 58.347656 40.261719 C 59.832031 40.261719 61.257812 41.191406 61.753906 42.804688 C 62.1875 44.296875 62.25 46.285156 62.25 48.703125 C 62.25 50.753906 62.25 52.804688 61.878906 54.542969 C 61.320312 57.089844 59.460938 57.648438 58.347656 57.648438 Z M 58.347656 57.648438 "
       id="path20" />
    <path
       style="fill-rule:nonzero;fill:rgb(100%,50.196078%,50.196078%);fill-opacity:1;stroke-width:0.3985;stroke-linecap:butt;stroke-linejoin:miter;stroke:rgb(0%,0%,0%);stroke-opacity:1;stroke-miterlimit:10;"
       d="M -50.884449 21.258432 C -50.884449 24.469624 -53.485733 27.067475 -56.692539 27.067475 C -59.899346 27.067475 -62.501615 24.469624 -62.501615 21.258432 C -62.501615 18.051172 -59.899346 15.454304 -56.692539 15.454304 C -53.485733 15.454304 -50.884449 18.051172 -50.884449 21.258432 Z M -50.884449 21.258432 "
       transform="matrix(3.967391,0,0,-3.974138,272.964457,215.382379)"
       id="path22" />
    <path
       style=" stroke:none;fill-rule:nonzero;fill:rgb(0%,0%,0%);fill-opacity:1;"
       d="M 41.085938 124.464844 C 41.335938 123.46875 42.265625 119.804688 44.992188 119.804688 C 45.179688 119.804688 46.171875 119.804688 46.976562 120.304688 C 45.859375 120.550781 45.117188 121.484375 45.117188 122.476562 C 45.117188 123.097656 45.550781 123.84375 46.605469 123.84375 C 47.472656 123.84375 48.710938 123.160156 48.710938 121.546875 C 48.710938 119.496094 46.417969 118.9375 45.054688 118.9375 C 42.761719 118.9375 41.398438 121.046875 40.902344 121.917969 C 39.910156 119.308594 37.800781 118.9375 36.625 118.9375 C 32.53125 118.9375 30.238281 124.027344 30.238281 125.023438 C 30.238281 125.457031 30.671875 125.457031 30.734375 125.457031 C 31.042969 125.457031 31.167969 125.332031 31.230469 125.023438 C 32.59375 120.800781 35.199219 119.804688 36.5625 119.804688 C 37.304688 119.804688 38.667969 120.179688 38.667969 122.476562 C 38.667969 123.71875 37.988281 126.328125 36.5625 131.914062 C 35.941406 134.335938 34.515625 136.011719 32.78125 136.011719 C 32.53125 136.011719 31.664062 136.011719 30.796875 135.515625 C 31.789062 135.269531 32.65625 134.460938 32.65625 133.34375 C 32.65625 132.289062 31.789062 131.976562 31.230469 131.976562 C 29.992188 131.976562 29.0625 132.96875 29.0625 134.273438 C 29.0625 136.074219 30.980469 136.882812 32.71875 136.882812 C 35.382812 136.882812 36.808594 134.089844 36.871094 133.902344 C 37.367188 135.332031 38.792969 136.882812 41.148438 136.882812 C 45.238281 136.882812 47.472656 131.789062 47.472656 130.796875 C 47.472656 130.363281 47.160156 130.363281 47.039062 130.363281 C 46.664062 130.363281 46.605469 130.550781 46.480469 130.796875 C 45.179688 135.082031 42.511719 136.011719 41.273438 136.011719 C 39.722656 136.011719 39.101562 134.769531 39.101562 133.40625 C 39.101562 132.535156 39.289062 131.667969 39.722656 129.929688 Z M 41.085938 124.464844 "
       id="path24" />
    <path
       style=" stroke:none;fill-rule:nonzero;fill:rgb(0%,0%,0%);fill-opacity:1;"
       d="M 59.710938 124.75 C 59.710938 124.003906 59.710938 124.003906 58.902344 124.003906 C 57.105469 125.742188 54.625 125.742188 53.511719 125.742188 L 53.511719 126.738281 C 54.128906 126.738281 55.992188 126.738281 57.476562 125.992188 L 57.476562 140.085938 C 57.476562 141.019531 57.476562 141.390625 54.75 141.390625 L 53.695312 141.390625 L 53.695312 142.386719 C 54.191406 142.386719 57.601562 142.261719 58.59375 142.261719 C 59.460938 142.261719 62.933594 142.386719 63.554688 142.386719 L 63.554688 141.390625 L 62.5 141.390625 C 59.710938 141.390625 59.710938 141.019531 59.710938 140.085938 Z M 59.710938 124.75 "
       id="path26" />
    <path
       style="fill-rule:nonzero;fill:rgb(100%,50.196078%,50.196078%);fill-opacity:1;stroke-width:0.3985;stroke-linecap:butt;stroke-linejoin:miter;stroke:rgb(0%,0%,0%);stroke-opacity:1;stroke-miterlimit:10;"
       d="M -50.884449 0.000873915 C -50.884449 3.208134 -53.485733 5.808934 -56.692539 5.808934 C -59.899346 5.808934 -62.501615 3.208134 -62.501615 0.000873915 C -62.501615 -3.206386 -59.899346 -5.808169 -56.692539 -5.808169 C -53.485733 -5.808169 -50.884449 -3.206386 -50.884449 0.000873915 Z M -50.884449 0.000873915 "
       transform="matrix(3.967391,0,0,-3.974138,272.964457,215.382379)"
       id="path28" />
    <path
       style=" stroke:none;fill-rule:nonzero;fill:rgb(0%,0%,0%);fill-opacity:1;"
       d="M 41.085938 208.953125 C 41.335938 207.960938 42.265625 204.296875 44.992188 204.296875 C 45.179688 204.296875 46.171875 204.296875 46.976562 204.792969 C 45.859375 205.042969 45.117188 205.972656 45.117188 206.964844 C 45.117188 207.585938 45.550781 208.332031 46.605469 208.332031 C 47.472656 208.332031 48.710938 207.648438 48.710938 206.035156 C 48.710938 203.984375 46.417969 203.425781 45.054688 203.425781 C 42.761719 203.425781 41.398438 205.539062 40.902344 206.40625 C 39.910156 203.800781 37.800781 203.425781 36.625 203.425781 C 32.53125 203.425781 30.238281 208.519531 30.238281 209.511719 C 30.238281 209.945312 30.671875 209.945312 30.734375 209.945312 C 31.042969 209.945312 31.167969 209.824219 31.230469 209.511719 C 32.59375 205.289062 35.199219 204.296875 36.5625 204.296875 C 37.304688 204.296875 38.667969 204.667969 38.667969 206.964844 C 38.667969 208.207031 37.988281 210.816406 36.5625 216.40625 C 35.941406 218.828125 34.515625 220.503906 32.78125 220.503906 C 32.53125 220.503906 31.664062 220.503906 30.796875 220.007812 C 31.789062 219.757812 32.65625 218.949219 32.65625 217.832031 C 32.65625 216.777344 31.789062 216.46875 31.230469 216.46875 C 29.992188 216.46875 29.0625 217.460938 29.0625 218.765625 C 29.0625 220.566406 30.980469 221.371094 32.71875 221.371094 C 35.382812 221.371094 36.808594 218.578125 36.871094 218.390625 C 37.367188 219.820312 38.792969 221.371094 41.148438 221.371094 C 45.238281 221.371094 47.472656 216.28125 47.472656 215.289062 C 47.472656 214.851562 47.160156 214.851562 47.039062 214.851562 C 46.664062 214.851562 46.605469 215.039062 46.480469 215.289062 C 45.179688 219.570312 42.511719 220.503906 41.273438 220.503906 C 39.722656 220.503906 39.101562 219.261719 39.101562 217.894531 C 39.101562 217.027344 39.289062 216.15625 39.722656 214.417969 Z M 41.085938 208.953125 "
       id="path30" />
    <path
       style=" stroke:none;fill-rule:nonzero;fill:rgb(0%,0%,0%);fill-opacity:1;"
       d="M 64.421875 221.847656 L 63.492188 221.847656 C 63.429688 222.464844 63.121094 224.082031 62.746094 224.328125 C 62.5625 224.515625 60.453125 224.515625 60.019531 224.515625 L 54.9375 224.515625 C 57.851562 221.96875 58.84375 221.164062 60.453125 219.859375 C 62.5 218.246094 64.421875 216.503906 64.421875 213.898438 C 64.421875 210.542969 61.507812 208.496094 57.972656 208.496094 C 54.566406 208.496094 52.207031 210.917969 52.207031 213.460938 C 52.207031 214.828125 53.386719 215.015625 53.695312 215.015625 C 54.316406 215.015625 55.121094 214.519531 55.121094 213.523438 C 55.121094 213.027344 54.9375 212.035156 53.511719 212.035156 C 54.378906 210.109375 56.238281 209.488281 57.539062 209.488281 C 60.328125 209.488281 61.753906 211.660156 61.753906 213.898438 C 61.753906 216.320312 60.019531 218.183594 59.152344 219.175781 L 52.519531 225.820312 C 52.207031 226.066406 52.207031 226.128906 52.207031 226.875 L 63.613281 226.875 Z M 64.421875 221.847656 "
       id="path32" />
    <path
       style="fill-rule:nonzero;fill:rgb(100%,50.196078%,50.196078%);fill-opacity:1;stroke-width:0.3985;stroke-linecap:butt;stroke-linejoin:miter;stroke:rgb(0%,0%,0%);stroke-opacity:1;stroke-miterlimit:10;"
       d="M -50.884449 -21.260616 C -50.884449 -18.054339 -53.485733 -15.452556 -56.692539 -15.452556 C -59.899346 -15.452556 -62.501615 -18.054339 -62.501615 -21.260616 C -62.501615 -24.467876 -59.899346 -27.069659 -56.692539 -27.069659 C -53.485733 -27.069659 -50.884449 -24.467876 -50.884449 -21.260616 Z M -50.884449 -21.260616 "
       transform="matrix(3.967391,0,0,-3.974138,272.964457,215.382379)"
       id="path34" />
    <path
       style=" stroke:none;fill-rule:nonzero;fill:rgb(0%,0%,0%);fill-opacity:1;"
       d="M 41.085938 293.445312 C 41.335938 292.449219 42.265625 288.785156 44.992188 288.785156 C 45.179688 288.785156 46.171875 288.785156 46.976562 289.285156 C 45.859375 289.53125 45.117188 290.464844 45.117188 291.457031 C 45.117188 292.078125 45.550781 292.824219 46.605469 292.824219 C 47.472656 292.824219 48.710938 292.140625 48.710938 290.523438 C 48.710938 288.476562 46.417969 287.917969 45.054688 287.917969 C 42.761719 287.917969 41.398438 290.027344 40.902344 290.898438 C 39.910156 288.289062 37.800781 287.917969 36.625 287.917969 C 32.53125 287.917969 30.238281 293.007812 30.238281 294.003906 C 30.238281 294.4375 30.671875 294.4375 30.734375 294.4375 C 31.042969 294.4375 31.167969 294.3125 31.230469 294.003906 C 32.59375 289.78125 35.199219 288.785156 36.5625 288.785156 C 37.304688 288.785156 38.667969 289.160156 38.667969 291.457031 C 38.667969 292.699219 37.988281 295.308594 36.5625 300.894531 C 35.941406 303.316406 34.515625 304.992188 32.78125 304.992188 C 32.53125 304.992188 31.664062 304.992188 30.796875 304.496094 C 31.789062 304.25 32.65625 303.441406 32.65625 302.324219 C 32.65625 301.269531 31.789062 300.957031 31.230469 300.957031 C 29.992188 300.957031 29.0625 301.949219 29.0625 303.253906 C 29.0625 305.054688 30.980469 305.863281 32.71875 305.863281 C 35.382812 305.863281 36.808594 303.070312 36.871094 302.882812 C 37.367188 304.3125 38.792969 305.863281 41.148438 305.863281 C 45.238281 305.863281 47.472656 300.769531 47.472656 299.777344 C 47.472656 299.34375 47.160156 299.34375 47.039062 299.34375 C 46.664062 299.34375 46.605469 299.527344 46.480469 299.777344 C 45.179688 304.0625 42.511719 304.992188 41.273438 304.992188 C 39.722656 304.992188 39.101562 303.75 39.101562 302.386719 C 39.101562 301.515625 39.289062 300.648438 39.722656 298.910156 Z M 41.085938 293.445312 "
       id="path36" />
    <path
       style=" stroke:none;fill-rule:nonzero;fill:rgb(0%,0%,0%);fill-opacity:1;"
       d="M 58.035156 302.113281 C 60.207031 302.113281 61.753906 303.605469 61.753906 306.585938 C 61.753906 310 59.710938 311.054688 58.160156 311.054688 C 57.042969 311.054688 54.566406 310.746094 53.449219 309.066406 C 54.75 309.066406 55.058594 308.136719 55.058594 307.515625 C 55.058594 306.644531 54.378906 306.027344 53.511719 306.027344 C 52.765625 306.027344 51.960938 306.523438 51.960938 307.640625 C 51.960938 310.246094 54.8125 311.925781 58.160156 311.925781 C 62.003906 311.925781 64.667969 309.316406 64.667969 306.585938 C 64.667969 304.410156 62.933594 302.238281 59.894531 301.617188 C 62.746094 300.5625 63.800781 298.511719 63.800781 296.773438 C 63.800781 294.601562 61.320312 292.984375 58.222656 292.984375 C 55.183594 292.984375 52.828125 294.476562 52.828125 296.710938 C 52.828125 297.640625 53.449219 298.140625 54.253906 298.140625 C 55.121094 298.140625 55.679688 297.519531 55.679688 296.773438 C 55.679688 295.964844 55.121094 295.34375 54.253906 295.28125 C 55.246094 294.101562 57.105469 293.792969 58.160156 293.792969 C 59.398438 293.792969 61.136719 294.414062 61.136719 296.773438 C 61.136719 297.953125 60.761719 299.257812 60.019531 300.0625 C 59.152344 301.121094 58.347656 301.183594 56.980469 301.304688 C 56.300781 301.367188 56.238281 301.367188 56.113281 301.367188 C 56.050781 301.367188 55.804688 301.429688 55.804688 301.742188 C 55.804688 302.113281 56.050781 302.113281 56.546875 302.113281 Z M 58.035156 302.113281 "
       id="path38" />
    <path
       style=" stroke:none;fill-rule:nonzero;fill:rgb(100%,50.196078%,50.196078%);fill-opacity:1;"
       d="M 72.792969 412.535156 C 72.792969 398.828125 61.710938 387.726562 48.042969 387.726562 C 34.359375 387.726562 23.277344 398.828125 23.277344 412.535156 C 23.277344 426.226562 34.359375 437.324219 48.042969 437.324219 C 61.710938 437.324219 72.792969 426.226562 72.792969 412.535156 Z M 72.792969 412.535156 "
       id="path40" />
    <g
       clip-path="url(#clip1)"
       clip-rule="nonzero"
       id="g42">
      <path
         style="fill:none;stroke-width:0.3985;stroke-linecap:butt;stroke-linejoin:miter;stroke:rgb(0%,0%,0%);stroke-opacity:1;stroke-miterlimit:10;"
         d="M -50.454183 -49.608942 C -50.454183 -46.159884 -53.247462 -43.366432 -56.692539 -43.366432 C -60.141555 -43.366432 -62.934834 -46.159884 -62.934834 -49.608942 C -62.934834 -53.054068 -60.141555 -55.846537 -56.692539 -55.846537 C -53.247462 -55.846537 -50.454183 -53.054068 -50.454183 -49.608942 Z M -50.454183 -49.608942 "
         transform="matrix(3.967391,0,0,-3.974138,272.964457,215.382379)"
         id="path44" />
    </g>
    <path
       style=" stroke:none;fill-rule:nonzero;fill:rgb(0%,0%,0%);fill-opacity:1;"
       d="M 39.195312 406.09375 C 39.441406 405.101562 40.371094 401.4375 43.101562 401.4375 C 43.285156 401.4375 44.277344 401.4375 45.082031 401.933594 C 43.96875 402.183594 43.222656 403.113281 43.222656 404.109375 C 43.222656 404.730469 43.65625 405.472656 44.710938 405.472656 C 45.578125 405.472656 46.820312 404.789062 46.820312 403.175781 C 46.820312 401.128906 44.527344 400.566406 43.160156 400.566406 C 40.867188 400.566406 39.503906 402.679688 39.007812 403.550781 C 38.015625 400.941406 35.910156 400.566406 34.730469 400.566406 C 30.640625 400.566406 28.347656 405.660156 28.347656 406.652344 C 28.347656 407.089844 28.78125 407.089844 28.84375 407.089844 C 29.152344 407.089844 29.277344 406.964844 29.335938 406.652344 C 30.703125 402.429688 33.304688 401.4375 34.667969 401.4375 C 35.414062 401.4375 36.777344 401.808594 36.777344 404.109375 C 36.777344 405.351562 36.09375 407.957031 34.667969 413.546875 C 34.050781 415.96875 32.625 417.644531 30.886719 417.644531 C 30.640625 417.644531 29.773438 417.644531 28.902344 417.148438 C 29.894531 416.898438 30.761719 416.09375 30.761719 414.972656 C 30.761719 413.917969 29.894531 413.609375 29.335938 413.609375 C 28.097656 413.609375 27.167969 414.601562 27.167969 415.90625 C 27.167969 417.707031 29.089844 418.515625 30.824219 418.515625 C 33.492188 418.515625 34.917969 415.71875 34.980469 415.535156 C 35.476562 416.960938 36.902344 418.515625 39.257812 418.515625 C 43.347656 418.515625 45.578125 413.421875 45.578125 412.429688 C 45.578125 411.992188 45.269531 411.992188 45.144531 411.992188 C 44.773438 411.992188 44.710938 412.179688 44.585938 412.429688 C 43.285156 416.714844 40.621094 417.644531 39.378906 417.644531 C 37.832031 417.644531 37.210938 416.402344 37.210938 415.035156 C 37.210938 414.167969 37.398438 413.296875 37.832031 411.558594 Z M 39.195312 406.09375 "
       id="path46" />
    <path
       style=" stroke:none;fill-rule:nonzero;fill:rgb(0%,0%,0%);fill-opacity:1;"
       d="M 51.929688 422.277344 C 51.867188 422.652344 51.679688 423.332031 51.679688 423.394531 C 51.679688 424.015625 52.175781 424.265625 52.609375 424.265625 C 53.105469 424.265625 53.539062 423.953125 53.726562 423.707031 C 53.851562 423.457031 54.035156 422.527344 54.222656 421.96875 C 54.347656 421.472656 54.65625 420.167969 54.78125 419.484375 C 54.964844 418.863281 55.152344 418.242188 55.277344 417.621094 C 55.585938 416.503906 55.648438 416.253906 56.453125 415.136719 C 57.199219 414.019531 58.5 412.589844 60.605469 412.589844 C 62.15625 412.589844 62.21875 414.019531 62.21875 414.515625 C 62.21875 416.191406 61.039062 419.234375 60.605469 420.414062 C 60.296875 421.222656 60.171875 421.472656 60.171875 421.90625 C 60.171875 423.394531 61.351562 424.265625 62.777344 424.265625 C 65.566406 424.265625 66.742188 420.476562 66.742188 420.042969 C 66.742188 419.671875 66.433594 419.671875 66.308594 419.671875 C 65.9375 419.671875 65.9375 419.855469 65.8125 420.167969 C 65.195312 422.402344 63.953125 423.519531 62.902344 423.519531 C 62.28125 423.519531 62.15625 423.148438 62.15625 422.527344 C 62.15625 421.90625 62.34375 421.53125 62.839844 420.289062 C 63.148438 419.421875 64.265625 416.503906 64.265625 414.949219 C 64.265625 412.28125 62.15625 411.785156 60.667969 411.785156 C 58.375 411.785156 56.824219 413.210938 56.019531 414.328125 C 55.832031 412.40625 54.222656 411.785156 53.042969 411.785156 C 51.867188 411.785156 51.246094 412.652344 50.875 413.273438 C 50.253906 414.328125 49.882812 415.882812 49.882812 416.070312 C 49.882812 416.378906 50.253906 416.378906 50.378906 416.378906 C 50.75 416.378906 50.75 416.316406 50.9375 415.570312 C 51.371094 413.957031 51.929688 412.589844 52.980469 412.589844 C 53.726562 412.589844 53.910156 413.210938 53.910156 413.957031 C 53.910156 414.453125 53.664062 415.507812 53.414062 416.253906 C 53.230469 417 52.980469 418.117188 52.859375 418.738281 Z M 51.929688 422.277344 "
       id="path48" />
    <path
       style="fill:none;stroke-width:0.79701;stroke-linecap:butt;stroke-linejoin:miter;stroke:rgb(0%,0%,0%);stroke-opacity:1;stroke-miterlimit:10;"
       d="M -50.684577 42.519922 C -29.423361 42.519922 -16.978156 29.406819 -6.700031 11.606182 "
       transform="matrix(3.967391,0,0,-3.974138,272.964457,215.382379)"
       id="path50" />
    <path
       style="fill:none;stroke-width:0.6376;stroke-linecap:round;stroke-linejoin:round;stroke:rgb(0%,0%,0%);stroke-opacity:1;stroke-miterlimit:10;"
       d="M -1.554397 2.072038 C -1.422873 1.294579 0.0000397762 0.131907 0.388669 0.00159022 C -0.000826115 -0.128255 -1.42502 -1.293804 -1.555757 -2.072839 "
       transform="matrix(1.990043,3.452612,3.446751,-1.993428,246.377301,169.254998)"
       id="path52" />
    <path
       style=" stroke:none;fill-rule:nonzero;fill:rgb(0%,0%,0%);fill-opacity:1;"
       d="M 188.109375 57.910156 C 188.789062 57.351562 190.03125 56.484375 190.15625 56.296875 C 190.652344 55.738281 190.402344 55.179688 189.90625 54.804688 C 189.535156 54.496094 188.789062 54.308594 188.109375 54.742188 C 187.800781 54.867188 181.722656 59.710938 180.792969 60.332031 C 179.925781 61.078125 179.367188 61.574219 178.871094 62.132812 C 178.625 62.503906 178.625 62.566406 178.5625 62.753906 C 176.515625 63.808594 174.78125 64.058594 173.542969 63.066406 C 171.0625 61.140625 172.859375 58.902344 173.292969 58.34375 C 174.097656 57.289062 175.277344 56.171875 179.679688 53.5 C 180.792969 52.820312 181.289062 52.570312 181.785156 51.949219 C 182.902344 50.519531 182.714844 48.597656 181.226562 47.417969 C 178.253906 45.058594 173.601562 48.71875 173.417969 48.96875 C 173.167969 49.28125 173.480469 49.464844 173.480469 49.527344 C 173.851562 49.777344 173.914062 49.714844 174.410156 49.339844 C 177.570312 47.105469 179.554688 47.167969 180.609375 47.976562 C 180.917969 48.222656 181.414062 48.597656 180.609375 49.652344 C 179.988281 50.398438 178.933594 51.082031 178.3125 51.328125 C 174.035156 54 172.609375 55.117188 171.621094 56.359375 C 169.386719 59.152344 170.628906 61.886719 172.984375 63.746094 C 173.480469 64.183594 174.96875 65.300781 177.878906 64.058594 C 177.136719 66.667969 179.183594 68.652344 180.113281 69.398438 C 182.46875 71.199219 185.320312 70.328125 187.613281 69.027344 C 190.589844 67.472656 194.867188 64.058594 196.042969 62.566406 C 197.40625 60.828125 196.847656 59.710938 196.355469 59.277344 C 195.546875 58.65625 194.183594 58.84375 193.6875 59.523438 C 193.316406 59.960938 193.378906 60.269531 193.441406 60.765625 C 193.503906 61.449219 193.625 62.816406 192.449219 64.304688 C 191.640625 65.425781 188.355469 67.785156 186.3125 68.652344 C 184.203125 69.707031 182.21875 69.894531 180.730469 68.714844 C 179.246094 67.535156 179.121094 65.984375 180.546875 64.121094 C 181.226562 63.25 182.21875 62.503906 182.652344 62.195312 Z M 188.109375 57.910156 "
       id="path54" />
    <path
       style="fill:#000000;fill-opacity:1;fill-rule:nonzero;stroke:none"
       d="m 199.35811,82.716985 c 2.5548,-1.741294 4.15273,-3.326302 5.01436,-5.46368 0.57766,-1.448458 0.48126,-3.425819 -0.7536,-5.307508 -3.67179,-5.303487 -9.92283,-1.07158 -11.58461,0.100809 -1.58726,1.130127 -7.76121,5.324661 -4.08941,10.628147 3.65694,5.364324 9.82973,1.173519 11.41326,0.04223 z m -10.755,-0.48783 c -0.72563,-1.007251 -1.05562,-2.865036 0.45895,-4.602816 1.15584,-1.203039 3.05237,-2.498734 4.71416,-3.671123 1.64436,-1.116444 3.38813,-2.328774 4.925,-2.889557 2.20026,-0.812509 3.65311,0.355635 4.27797,1.26606 0.85009,1.238273 0.94394,3.026653 -0.10996,4.322786 -1.01792,1.180511 -2.66113,2.293225 -4.65449,3.689698 -1.66178,1.172389 -3.40554,2.384719 -5.05782,3.105957 -2.3939,1.014065 -3.94754,-0.250904 -4.55381,-1.221005 z m 0,0"
       id="path56" />
    <path
       style="fill:none;stroke-width:0.79701;stroke-linecap:butt;stroke-linejoin:miter;stroke:rgb(0%,0%,0%);stroke-opacity:1;stroke-miterlimit:10;"
       d="M -50.684577 21.258432 C -34.180896 21.258432 -25.286118 14.598183 -11.606238 6.699457 "
       transform="matrix(3.967391,0,0,-3.974138,272.964457,215.382379)"
       id="path58" />
    <path
       style="fill:none;stroke-width:0.6376;stroke-linecap:round;stroke-linejoin:round;stroke:rgb(0%,0%,0%);stroke-opacity:1;stroke-miterlimit:10;"
       d="M -1.555753 2.071701 C -1.425567 1.292665 0.0016505 0.129958 0.388377 -0.00201975 C -0.00188761 -0.12891 -1.42359 -1.295945 -1.554187 -2.072807 "
       transform="matrix(3.446751,1.993388,1.990004,-3.452612,226.915382,188.750091)"
       id="path60" />
    <path
       style=" stroke:none;fill-rule:nonzero;fill:rgb(0%,0%,0%);fill-opacity:1;"
       d="M 160.226562 122.296875 C 160.722656 121.550781 161.714844 120.433594 161.835938 120.1875 C 162.148438 119.503906 161.777344 119.007812 161.15625 118.757812 C 160.785156 118.570312 159.976562 118.507812 159.421875 119.128906 C 159.234375 119.378906 154.398438 125.527344 153.71875 126.394531 C 153.035156 127.328125 152.601562 127.886719 152.292969 128.570312 C 152.105469 129.003906 152.105469 129.066406 152.105469 129.25 C 150.371094 130.804688 148.820312 131.488281 147.394531 130.867188 C 144.480469 129.5625 145.660156 126.890625 145.90625 126.269531 C 146.464844 125.03125 147.269531 123.726562 150.988281 120 C 151.796875 119.128906 152.292969 118.757812 152.601562 118.011719 C 153.34375 116.335938 152.664062 114.472656 150.925781 113.726562 C 147.457031 112.175781 143.859375 116.832031 143.738281 117.207031 C 143.550781 117.515625 143.921875 117.640625 143.984375 117.703125 C 144.355469 117.828125 144.417969 117.765625 144.851562 117.328125 C 147.332031 114.347656 149.253906 113.914062 150.492188 114.472656 C 150.867188 114.597656 151.421875 114.84375 150.867188 116.027344 C 150.492188 116.957031 149.625 117.828125 149.066406 118.261719 C 145.597656 121.863281 144.480469 123.289062 143.859375 124.71875 C 142.371094 128.011719 144.171875 130.308594 146.898438 131.550781 C 147.519531 131.796875 149.253906 132.605469 151.796875 130.679688 C 151.734375 133.472656 154.152344 134.777344 155.265625 135.273438 C 157.933594 136.453125 160.535156 134.902344 162.457031 133.101562 C 164.9375 130.867188 168.285156 126.519531 169.089844 124.71875 C 169.957031 122.730469 169.152344 121.800781 168.472656 121.550781 C 167.601562 121.117188 166.300781 121.675781 165.929688 122.484375 C 165.742188 122.980469 165.867188 123.230469 166.054688 123.664062 C 166.300781 124.347656 166.796875 125.589844 165.992188 127.328125 C 165.433594 128.632812 162.890625 131.671875 161.09375 133.101562 C 159.296875 134.59375 157.5 135.335938 155.699219 134.53125 C 154.027344 133.785156 153.53125 132.234375 154.460938 130.121094 C 154.894531 129.128906 155.640625 128.195312 155.949219 127.699219 Z M 160.226562 122.296875 "
       id="path62" />
    <path
       style="fill:#000000;fill-opacity:1;fill-rule:nonzero;stroke:none"
       d="m 178.81487,133.37354 c 0.45651,-0.59509 0.47079,-0.65594 -0.18135,-1.12583 -2.4304,0.3208 -4.49714,-1.18294 -5.36413,-1.8316 l -0.6344,0.80614 c 0.48677,0.37092 1.94505,1.4752 3.72211,1.76754 l -8.56166,11.2567 c -0.56016,0.76337 -0.80936,1.0219 -3.03012,-0.64635 l -0.80614,-0.63439 -0.57354,0.82042 c 0.37934,0.28153 3.15817,2.27323 3.97859,2.84677 0.70162,0.5497 3.42427,2.781 3.85019,3.13766 l 0.57443,-0.82422 -0.867,-0.64866 c -2.1599,-1.65398 -1.906,-1.91542 -1.34673,-2.67498 z m 0,0"
       id="path64" />
    <path
       style="fill:none;stroke-width:0.79701;stroke-linecap:butt;stroke-linejoin:miter;stroke:rgb(0%,0%,0%);stroke-opacity:1;stroke-miterlimit:10;"
       d="M -50.684577 0.000873915 C -35.852728 0.000873915 -27.48569 0.000873915 -13.360776 0.000873915 "
       transform="matrix(3.967391,0,0,-3.974138,272.964457,215.382379)"
       id="path66" />
    <path
       style="fill:none;stroke-width:0.6376;stroke-linecap:round;stroke-linejoin:round;stroke:rgb(0%,0%,0%);stroke-opacity:1;stroke-miterlimit:10;"
       d="M -1.555382 2.070898 C -1.426401 1.293411 -0.000715685 0.129636 0.390166 0.000873915 C -0.000715685 -0.127888 -1.426401 -1.296577 -1.555382 -2.073082 "
       transform="matrix(3.967391,0,0,-3.974138,219.959871,215.382379)"
       id="path68" />
    <path
       style=" stroke:none;fill-rule:nonzero;fill:rgb(0%,0%,0%);fill-opacity:1;"
       d="M 142.59375 189.167969 C 142.78125 188.300781 143.152344 186.808594 143.152344 186.5625 C 143.152344 185.878906 142.59375 185.503906 142.035156 185.503906 C 141.539062 185.503906 140.859375 185.816406 140.546875 186.621094 C 140.425781 186.871094 138.5625 194.445312 138.316406 195.503906 C 138.007812 196.683594 137.945312 197.367188 137.945312 198.109375 C 137.945312 198.546875 137.945312 198.609375 138.007812 198.792969 C 137.078125 200.90625 135.898438 202.148438 134.347656 202.148438 C 131.1875 202.148438 131.1875 199.226562 131.1875 198.546875 C 131.1875 197.304688 131.375 195.75 133.234375 190.84375 C 133.667969 189.664062 133.914062 189.105469 133.914062 188.300781 C 133.914062 186.5625 132.613281 185.070312 130.691406 185.070312 C 126.910156 185.070312 125.484375 190.84375 125.484375 191.15625 C 125.484375 191.589844 125.855469 191.589844 125.917969 191.589844 C 126.351562 191.589844 126.351562 191.464844 126.539062 190.84375 C 127.652344 187.183594 129.140625 185.941406 130.566406 185.941406 C 130.9375 185.941406 131.558594 186.003906 131.558594 187.242188 C 131.558594 188.238281 131.125 189.355469 130.816406 190.039062 C 129.078125 194.695312 128.644531 196.496094 128.644531 198.046875 C 128.644531 201.648438 131.25 203.015625 134.226562 203.015625 C 134.90625 203.015625 136.765625 203.015625 138.316406 200.222656 C 139.371094 202.769531 142.097656 203.015625 143.277344 203.015625 C 146.25 203.015625 147.988281 200.53125 149.039062 198.171875 C 150.34375 195.066406 151.644531 189.726562 151.644531 187.863281 C 151.644531 185.691406 150.589844 185.070312 149.910156 185.070312 C 148.917969 185.070312 147.925781 186.125 147.925781 186.996094 C 147.925781 187.492188 148.171875 187.742188 148.484375 188.050781 C 148.917969 188.484375 149.910156 189.480469 149.910156 191.40625 C 149.910156 192.769531 148.792969 196.621094 147.738281 198.667969 C 146.746094 200.78125 145.320312 202.148438 143.398438 202.148438 C 141.539062 202.148438 140.484375 200.96875 140.484375 198.667969 C 140.484375 197.613281 140.734375 196.371094 140.917969 195.8125 Z M 142.59375 189.167969 "
       id="path70" />
    <path
       style=" stroke:none;fill-rule:nonzero;fill:rgb(0%,0%,0%);fill-opacity:1;"
       d="M 166.554688 203.492188 L 165.625 203.492188 C 165.5625 204.113281 165.25 205.730469 164.878906 205.976562 C 164.695312 206.164062 162.585938 206.164062 162.152344 206.164062 L 157.070312 206.164062 C 159.984375 203.617188 160.972656 202.808594 162.585938 201.507812 C 164.632812 199.890625 166.554688 198.152344 166.554688 195.546875 C 166.554688 192.191406 163.640625 190.144531 160.105469 190.144531 C 156.695312 190.144531 154.339844 192.5625 154.339844 195.109375 C 154.339844 196.476562 155.519531 196.664062 155.828125 196.664062 C 156.449219 196.664062 157.253906 196.164062 157.253906 195.171875 C 157.253906 194.675781 157.070312 193.683594 155.644531 193.683594 C 156.511719 191.757812 158.371094 191.136719 159.671875 191.136719 C 162.460938 191.136719 163.886719 193.308594 163.886719 195.546875 C 163.886719 197.964844 162.152344 199.828125 161.285156 200.824219 L 154.652344 207.46875 C 154.339844 207.714844 154.339844 207.777344 154.339844 208.523438 L 165.746094 208.523438 Z M 166.554688 203.492188 "
       id="path72" />
    <path
       style="fill:none;stroke-width:0.79701;stroke-linecap:butt;stroke-linejoin:miter;stroke:rgb(0%,0%,0%);stroke-opacity:1;stroke-miterlimit:10;"
       d="M -50.684577 -21.260616 C -34.180896 -21.260616 -25.286118 -14.60135 -11.606238 -6.702624 "
       transform="matrix(3.967391,0,0,-3.974138,272.964457,215.382379)"
       id="path74" />
    <path
       style="fill:none;stroke-width:0.6376;stroke-linecap:round;stroke-linejoin:round;stroke:rgb(0%,0%,0%);stroke-opacity:1;stroke-miterlimit:10;"
       d="M -1.554655 2.073958 C -1.425168 1.293211 -0.00150636 0.129571 0.387288 0.000134479 C 0.00056202 -0.131843 -1.427145 -1.295399 -1.555372 -2.07104 "
       transform="matrix(3.446751,-1.993388,-1.990004,-3.452612,226.915382,242.014667)"
       id="path76" />
    <path
       style=" stroke:none;fill-rule:nonzero;fill:rgb(0%,0%,0%);fill-opacity:1;"
       d="M 138.929688 260.445312 C 138.679688 259.578125 138.558594 258.085938 138.433594 257.839844 C 138.125 257.15625 137.503906 257.15625 136.882812 257.402344 C 136.511719 257.589844 135.953125 258.148438 136.015625 258.894531 C 136.078125 259.265625 137.441406 266.902344 137.628906 268.023438 C 137.8125 269.203125 138 269.882812 138.308594 270.566406 C 138.496094 271.003906 138.496094 271.066406 138.621094 271.125 C 138.621094 273.425781 138.0625 275.101562 136.636719 275.722656 C 133.722656 277.027344 132.542969 274.355469 132.296875 273.734375 C 131.738281 272.492188 131.304688 271.066406 131.054688 265.847656 C 130.996094 264.605469 130.996094 263.984375 130.683594 263.242188 C 129.941406 261.5625 128.144531 260.820312 126.40625 261.5625 C 122.9375 263.117188 123.925781 268.890625 124.050781 269.265625 C 124.238281 269.574219 124.609375 269.449219 124.671875 269.386719 C 125.042969 269.265625 124.980469 269.203125 124.917969 268.519531 C 124.421875 264.667969 125.351562 262.992188 126.59375 262.433594 C 126.964844 262.308594 127.523438 262.0625 128.082031 263.242188 C 128.453125 264.171875 128.578125 265.289062 128.515625 265.972656 C 128.761719 271.066406 129.132812 272.867188 129.753906 274.292969 C 131.242188 277.585938 134.15625 277.769531 136.882812 276.527344 C 137.503906 276.28125 139.238281 275.472656 139.550781 272.304688 C 141.472656 274.230469 144.136719 273.300781 145.253906 272.804688 C 147.917969 271.625 148.539062 268.703125 148.476562 266.035156 C 148.476562 262.679688 147.484375 257.339844 146.679688 255.539062 C 145.808594 253.554688 144.632812 253.492188 143.949219 253.738281 C 143.082031 254.175781 142.523438 255.476562 142.898438 256.285156 C 143.082031 256.78125 143.453125 256.90625 143.886719 256.96875 C 144.507812 257.277344 145.75 257.777344 146.554688 259.515625 C 147.113281 260.820312 147.667969 264.730469 147.484375 267.027344 C 147.421875 269.386719 146.738281 271.25 144.941406 272.058594 C 143.269531 272.804688 141.78125 272.121094 140.851562 270.007812 C 140.417969 269.015625 140.167969 267.835938 140.105469 267.214844 Z M 138.929688 260.445312 "
       id="path78" />
    <path
       style="fill:#000000;fill-opacity:1;fill-rule:nonzero;stroke:none"
       d="m 159.15087,262.61519 c 1.80873,-1.08668 3.86584,-0.57415 5.41043,1.99549 1.71194,2.92775 0.55798,4.8115 -0.84165,5.66199 -0.93563,0.545 -3.18947,1.55747 -5.0338,0.70961 1.09641,-0.75241 0.92678,-1.67259 0.61797,-2.19911 -0.45411,-0.6945 -1.35873,-0.96711 -2.11874,-0.50146 -0.63962,0.38484 -1.10854,1.19031 -0.49425,2.18083 1.32665,2.28426 4.68802,2.20904 7.54547,0.50132 3.33253,-1.95158 4.29345,-5.49996 2.89751,-7.8391 -1.09001,-1.87127 -3.76635,-2.87433 -6.70255,-1.84565 1.96498,-2.41823 1.81735,-4.7763 0.95966,-6.23801 -1.15253,-1.86795 -4.15923,-1.95577 -6.78663,-0.40056 -2.68949,1.56241 -3.90327,4.01544 -2.74398,5.94159 0.47286,0.8221 1.30099,0.97773 1.99504,0.51973 0.76766,-0.39968 0.84968,-1.28613 0.4644,-1.92962 -0.39249,-0.70558 -1.16197,-0.86409 -1.93295,-0.52694 0.19717,-1.52111 1.73311,-2.82391 2.55132,-3.29631 1.11081,-0.62824 2.9434,-0.9666 4.17963,1.0804 0.55941,1.0598 0.83387,2.34141 0.71091,3.41742 -0.28041,1.34595 -0.97879,1.80051 -2.0752,2.55292 -0.57376,0.44405 -0.63584,0.45125 -0.68397,0.57874 -0.0621,0.007 -0.22286,0.2146 -0.081,0.38691 0.2362,0.4091 0.40806,0.26334 0.8797,0.0238 z m 0,0"
       id="path80" />
    <path
       style="fill:none;stroke-width:0.79701;stroke-linecap:butt;stroke-linejoin:miter;stroke:rgb(0%,0%,0%);stroke-opacity:1;stroke-miterlimit:10;"
       d="M -50.255296 -49.608942 C -27.454183 -49.608942 -17.74712 -30.737907 -6.700031 -11.608366 "
       transform="matrix(3.967391,0,0,-3.974138,272.964457,215.382379)"
       id="path82" />
    <path
       style="fill:none;stroke-width:0.6376;stroke-linecap:round;stroke-linejoin:round;stroke:rgb(0%,0%,0%);stroke-opacity:1;stroke-miterlimit:10;"
       d="M -1.554233 2.073807 C -1.423513 1.294757 -0.000177406 0.128664 0.38932 -0.00119317 C 0.00153031 -0.131012 -1.425677 -1.296114 -1.553828 -2.071621 "
       transform="matrix(1.989924,-3.452612,-3.446751,-1.993308,246.37742,261.509761)"
       id="path84" />
    <path
       style=" stroke:none;fill-rule:nonzero;fill:rgb(0%,0%,0%);fill-opacity:1;"
       d="M 153.949219 352.207031 C 153.453125 351.464844 152.585938 350.222656 152.402344 350.035156 C 151.90625 349.601562 151.285156 349.664062 150.914062 350.097656 C 150.601562 350.46875 150.355469 351.214844 150.726562 351.960938 C 150.789062 352.207031 155.066406 358.789062 155.6875 359.660156 C 156.367188 360.652344 156.800781 361.210938 157.296875 361.710938 C 157.609375 362.019531 157.667969 362.019531 157.855469 362.082031 C 158.785156 364.253906 158.910156 365.933594 157.792969 367.113281 C 155.6875 369.410156 153.578125 367.421875 153.019531 366.988281 C 152.152344 366.117188 151.160156 364.9375 148.804688 360.21875 C 148.246094 359.101562 148 358.542969 147.441406 357.984375 C 146.140625 356.804688 144.15625 356.742188 142.855469 358.167969 C 140.3125 360.902344 143.535156 365.871094 143.722656 366.117188 C 144.09375 366.367188 144.339844 366.117188 144.402344 366.054688 C 144.714844 365.746094 144.589844 365.683594 144.28125 365.125 C 142.359375 361.832031 142.421875 359.847656 143.410156 358.789062 C 143.660156 358.542969 144.15625 358.109375 145.023438 358.976562 C 145.765625 359.597656 146.261719 360.777344 146.574219 361.398438 C 148.804688 365.871094 149.796875 367.421875 150.976562 368.476562 C 153.578125 370.960938 156.304688 369.96875 158.351562 367.792969 C 158.847656 367.296875 160.085938 365.933594 159.09375 362.890625 C 161.699219 363.820312 163.746094 362.019531 164.550781 361.148438 C 166.535156 358.976562 165.976562 355.996094 164.921875 353.636719 C 163.558594 350.53125 160.582031 346 159.21875 344.695312 C 157.609375 343.203125 156.429688 343.578125 155.996094 344.074219 C 155.3125 344.820312 155.375 346.183594 155.996094 346.804688 C 156.367188 347.117188 156.738281 347.117188 157.171875 347.117188 C 157.792969 347.117188 159.21875 347.054688 160.582031 348.359375 C 161.574219 349.289062 163.621094 352.765625 164.425781 354.941406 C 165.292969 357.050781 165.292969 359.039062 163.992188 360.46875 C 162.753906 361.832031 161.140625 361.769531 159.46875 360.21875 C 158.660156 359.472656 157.980469 358.480469 157.667969 357.984375 Z M 153.949219 352.207031 "
       id="path86" />
    <path
       style=" stroke:none;fill-rule:nonzero;fill:rgb(0%,0%,0%);fill-opacity:1;"
       d="M 176.066406 354.386719 C 176.191406 354.695312 176.5625 355.253906 176.625 355.316406 C 177.058594 355.75 177.617188 355.628906 177.863281 355.253906 C 178.234375 354.945312 178.296875 354.324219 178.234375 354.074219 C 178.113281 353.828125 177.617188 353.019531 177.304688 352.460938 C 176.933594 352.027344 176.3125 350.96875 175.941406 350.347656 C 175.507812 349.851562 175.199219 349.292969 174.886719 348.796875 C 174.207031 347.742188 174.144531 347.617188 173.835938 346.1875 C 173.523438 344.886719 173.339844 342.960938 174.765625 341.40625 C 175.878906 340.226562 176.933594 341.222656 177.304688 341.59375 C 178.484375 342.648438 179.972656 345.628906 180.53125 346.746094 C 180.839844 347.554688 180.964844 347.742188 181.335938 348.113281 C 182.449219 349.109375 183.875 348.859375 184.867188 347.804688 C 186.726562 345.816406 184.808594 342.277344 184.496094 341.964844 C 184.25 341.71875 183.9375 341.964844 183.9375 342.027344 C 183.691406 342.339844 183.753906 342.464844 183.9375 342.835938 C 185.117188 344.761719 185.117188 346.4375 184.371094 347.246094 C 183.9375 347.679688 183.628906 347.429688 183.132812 347.058594 C 182.699219 346.625 182.511719 346.3125 181.957031 345.070312 C 181.582031 344.203125 180.21875 341.34375 179.042969 340.289062 C 177.058594 338.425781 175.261719 339.792969 174.332031 340.847656 C 172.71875 342.523438 172.71875 344.574219 172.964844 346.003906 C 171.417969 344.761719 169.867188 345.566406 169.0625 346.4375 C 168.253906 347.308594 168.441406 348.363281 168.628906 349.046875 C 169 350.226562 169.867188 351.589844 169.992188 351.652344 C 170.238281 351.902344 170.488281 351.589844 170.609375 351.527344 C 170.859375 351.21875 170.796875 351.15625 170.425781 350.535156 C 169.496094 349.109375 168.875 347.804688 169.558594 346.996094 C 170.113281 346.4375 170.671875 346.746094 171.230469 347.246094 C 171.601562 347.617188 172.160156 348.488281 172.59375 349.109375 C 173.027344 349.726562 173.648438 350.785156 174.019531 351.34375 Z M 176.066406 354.386719 "
       id="path88" />
    <path
       style="fill:none;stroke-width:0.79701;stroke-linecap:butt;stroke-linejoin:miter;stroke:rgb(0%,0%,0%);stroke-opacity:1;stroke-miterlimit:10;"
       d="M 12.651082 0.000873915 L 41.811656 0.000873915 "
       transform="matrix(3.967391,0,0,-3.974138,272.964457,215.382379)"
       id="path90" />
    <path
       style="fill:none;stroke-width:0.6376;stroke-linecap:round;stroke-linejoin:round;stroke:rgb(0%,0%,0%);stroke-opacity:1;stroke-miterlimit:10;"
       d="M -1.551912 2.070898 C -1.423915 1.293411 -0.00118418 0.129636 0.388713 0.000873915 C -0.00118418 -0.127888 -1.423915 -1.296577 -1.551912 -2.073082 "
       transform="matrix(3.967391,0,0,-3.974138,438.852354,215.382379)"
       id="path92" />
    <path
       style=" stroke:none;fill-rule:nonzero;fill:rgb(0%,0%,0%);fill-opacity:1;"
       d="M 474.949219 213.101562 C 474.949219 208.941406 472.21875 206.394531 468.625 206.394531 C 463.355469 206.394531 458.023438 212.046875 458.023438 217.636719 C 458.023438 221.546875 460.691406 224.339844 464.347656 224.339844 C 469.617188 224.339844 474.949219 218.878906 474.949219 213.101562 Z M 464.410156 223.472656 C 462.671875 223.472656 460.9375 222.230469 460.9375 219.125 C 460.9375 217.199219 461.992188 212.914062 463.230469 210.929688 C 465.214844 207.886719 467.507812 207.265625 468.625 207.265625 C 470.917969 207.265625 472.097656 209.191406 472.097656 211.550781 C 472.097656 213.101562 471.289062 217.261719 469.800781 219.808594 C 468.375 222.105469 466.207031 223.472656 464.410156 223.472656 Z M 464.410156 223.472656 "
       id="path94" />
    <path
       style="fill:none;stroke:#000000;stroke-width:0.39851281;stroke-linecap:butt;stroke-linejoin:miter;stroke-miterlimit:10;stroke-dasharray:1.59405123,0.79702562;stroke-opacity:1;stroke-dashoffset:0"
       d="m -0.06243215,-12.497456 0.03077258,24.962008"
       transform="matrix(3.967391,0,0,-3.974138,272.96446,215.38238)"
       id="path96" />
    <path
       style=" stroke:none;fill-rule:nonzero;fill:rgb(0%,0%,0%);fill-opacity:1;"
       d="M 50.117188 340.953125 C 50.117188 339.835938 49.1875 338.839844 48.070312 338.839844 C 46.894531 338.839844 45.964844 339.835938 45.964844 340.953125 C 45.964844 342.132812 46.894531 343.0625 48.070312 343.0625 C 49.1875 343.0625 50.117188 342.132812 50.117188 340.953125 Z M 50.117188 340.953125 "
       id="path98" />
    <path
       style=" stroke:none;fill-rule:nonzero;fill:rgb(0%,0%,0%);fill-opacity:1;"
       d="M 50.117188 356.789062 C 50.117188 355.671875 49.1875 354.679688 48.070312 354.679688 C 46.894531 354.679688 45.964844 355.671875 45.964844 356.789062 C 45.964844 357.96875 46.894531 358.902344 48.070312 358.902344 C 49.1875 358.902344 50.117188 357.96875 50.117188 356.789062 Z M 50.117188 356.789062 "
       id="path100" />
    <path
       style=" stroke:none;fill-rule:nonzero;fill:rgb(0%,0%,0%);fill-opacity:1;"
       d="M 50.117188 372.625 C 50.117188 371.507812 49.1875 370.515625 48.070312 370.515625 C 46.894531 370.515625 45.964844 371.507812 45.964844 372.625 C 45.964844 373.804688 46.894531 374.738281 48.070312 374.738281 C 49.1875 374.738281 50.117188 373.804688 50.117188 372.625 Z M 50.117188 372.625 "
       id="path102" />
  </g>
  <g
     id="text4183"
     style="font-style:normal;font-weight:normal;font-size:32px;line-height:125%;font-family:sans-serif;letter-spacing:0px;word-spacing:0px;fill:#000000;fill-opacity:1;stroke:none;stroke-width:1px;stroke-linecap:butt;stroke-linejoin:miter;stroke-opacity:1">
    <path
       id="path4187"
       style="font-style:normal;font-variant:normal;font-weight:normal;font-stretch:normal;font-size:20px;font-family:'Times New Roman';-inkscape-font-specification:'Times New Roman, '"
       d="m 72.186592,35.065231 10.537109,0 0,0.800782 -10.537109,0 0,-0.800782 z m 0,3.183594 10.537109,0 0,0.800781 -10.537109,0 0,-0.800781 z" />
  </g>
  <path
     style="fill:#000000;fill-opacity:1;fill-rule:nonzero;stroke:none"
     d="m 88.489486,29.863405 c 0,-0.562427 0,-0.562427 -0.609544,-0.562427 -1.354542,1.310371 -3.224398,1.310371 -4.063625,1.310371 l 0,0.750884 c 0.465255,0 1.869857,0 2.988825,-0.562426 l 0,10.624318 c 0,0.70377 0,0.983509 -2.055369,0.983509 l -0.795058,0 0,0.750892 c 0.373972,0 2.944656,-0.09423 3.692599,-0.09423 0.653714,0 3.271513,0.09423 3.739713,0.09423 l 0,-0.750892 -0.795057,0 c -2.102484,0 -2.102484,-0.279739 -2.102484,-0.983509 z m 0,0"
     id="path26-6" />
</svg>
