<?xml version="1.0" encoding="UTF-8" standalone="no"?>
<!-- Created with Inkscape (http://www.inkscape.org/) -->

<svg
   xmlns:dc="http://purl.org/dc/elements/1.1/"
   xmlns:cc="http://creativecommons.org/ns#"
   xmlns:rdf="http://www.w3.org/1999/02/22-rdf-syntax-ns#"
   xmlns:svg="http://www.w3.org/2000/svg"
   xmlns="http://www.w3.org/2000/svg"
   xmlns:xlink="http://www.w3.org/1999/xlink"
   xmlns:sodipodi="http://sodipodi.sourceforge.net/DTD/sodipodi-0.dtd"
   xmlns:inkscape="http://www.inkscape.org/namespaces/inkscape"
   width="170mm"
   height="160mm"
   viewBox="0 0 602.36212 566.92916"
   id="svg2"
   version="1.1"
   inkscape:version="0.91 r13725"
   sodipodi:docname="ROC_curves.svg">
  <sodipodi:namedview
     id="base"
     pagecolor="#ffffff"
     bordercolor="#666666"
     borderopacity="1.0"
     inkscape:pageopacity="0.0"
     inkscape:pageshadow="2"
     inkscape:zoom="1.0960155"
     inkscape:cx="374.28478"
     inkscape:cy="177.41234"
     inkscape:document-units="px"
     inkscape:current-layer="layer1"
     showgrid="true"
     inkscape:window-width="1366"
     inkscape:window-height="705"
     inkscape:window-x="-8"
     inkscape:window-y="-8"
     inkscape:window-maximized="1"
     gridtolerance="1">
    <inkscape:grid
       type="xygrid"
       id="grid3336" />
  </sodipodi:namedview>
  <defs
     id="defs4">
    <linearGradient
       inkscape:collect="always"
       id="linearGradient4274">
      <stop
         style="stop-color:#000000;stop-opacity:1;"
         offset="0"
         id="stop4276" />
      <stop
         style="stop-color:#000000;stop-opacity:0;"
         offset="1"
         id="stop4278" />
    </linearGradient>
    <marker
       inkscape:isstock="true"
       style="overflow:visible"
       id="marker6191"
       refX="0"
       refY="0"
       orient="auto"
       inkscape:stockid="Arrow1Mend">
      <path
         transform="matrix(-0.4,0,0,-0.4,-4,0)"
         style="fill:#047f0d;fill-opacity:1;fill-rule:evenodd;stroke:#047f0d;stroke-width:1pt;stroke-opacity:1"
         d="M 0,0 5,-5 -12.5,0 5,5 0,0 Z"
         id="path6193"
         inkscape:connector-curvature="0" />
    </marker>
    <marker
       inkscape:isstock="true"
       style="overflow:visible"
       id="marker6181"
       refX="0"
       refY="0"
       orient="auto"
       inkscape:stockid="Arrow1Mstart">
      <path
         transform="matrix(0.4,0,0,0.4,4,0)"
         style="fill:#047f0d;fill-opacity:1;fill-rule:evenodd;stroke:#047f0d;stroke-width:1pt;stroke-opacity:1"
         d="M 0,0 5,-5 -12.5,0 5,5 0,0 Z"
         id="path6183"
         inkscape:connector-curvature="0" />
    </marker>
    <marker
       inkscape:stockid="Arrow1Mstart"
       orient="auto"
       refY="0"
       refX="0"
       id="marker5038"
       style="overflow:visible"
       inkscape:isstock="true">
      <path
         id="path5040"
         d="M 0,0 5,-5 -12.5,0 5,5 0,0 Z"
         style="fill:#000000;fill-opacity:1;fill-rule:evenodd;stroke:#000000;stroke-width:1pt;stroke-opacity:1"
         transform="matrix(0.4,0,0,0.4,4,0)"
         inkscape:connector-curvature="0" />
    </marker>
    <marker
       inkscape:stockid="Arrow1Mend"
       orient="auto"
       refY="0"
       refX="0"
       id="marker4888"
       style="overflow:visible"
       inkscape:isstock="true">
      <path
         id="path4890"
         d="M 0,0 5,-5 -12.5,0 5,5 0,0 Z"
         style="fill:#000000;fill-opacity:1;fill-rule:evenodd;stroke:#000000;stroke-width:1pt;stroke-opacity:1"
         transform="matrix(-0.4,0,0,-0.4,-4,0)"
         inkscape:connector-curvature="0" />
    </marker>
    <marker
       inkscape:stockid="Arrow2Send"
       orient="auto"
       refY="0"
       refX="0"
       id="Arrow2Send"
       style="overflow:visible"
       inkscape:isstock="true">
      <path
         id="path4391"
         style="fill:#000000;fill-opacity:1;fill-rule:evenodd;stroke:#000000;stroke-width:0.625;stroke-linejoin:round;stroke-opacity:1"
         d="M 8.7185878,4.0337352 -2.2072895,0.01601326 8.7185884,-4.0017078 c -1.7454984,2.3720609 -1.7354408,5.6174519 -6e-7,8.035443 z"
         transform="matrix(-0.3,0,0,-0.3,0.69,0)"
         inkscape:connector-curvature="0" />
    </marker>
    <marker
       inkscape:stockid="Arrow2Lend"
       orient="auto"
       refY="0"
       refX="0"
       id="Arrow2Lend"
       style="overflow:visible"
       inkscape:isstock="true">
      <path
         id="path4379"
         style="fill:#000000;fill-opacity:1;fill-rule:evenodd;stroke:#000000;stroke-width:0.625;stroke-linejoin:round;stroke-opacity:1"
         d="M 8.7185878,4.0337352 -2.2072895,0.01601326 8.7185884,-4.0017078 c -1.7454984,2.3720609 -1.7354408,5.6174519 -6e-7,8.035443 z"
         transform="matrix(-1.1,0,0,-1.1,-1.1,0)"
         inkscape:connector-curvature="0" />
    </marker>
    <marker
       inkscape:stockid="Arrow1Mend"
       orient="auto"
       refY="0"
       refX="0"
       id="Arrow1Mend"
       style="overflow:visible"
       inkscape:isstock="true"
       inkscape:collect="always">
      <path
         id="path4367"
         d="M 0,0 5,-5 -12.5,0 5,5 0,0 Z"
         style="fill:#047f0d;fill-opacity:1;fill-rule:evenodd;stroke:#047f0d;stroke-width:1pt;stroke-opacity:1"
         transform="matrix(-0.4,0,0,-0.4,-4,0)"
         inkscape:connector-curvature="0" />
    </marker>
    <marker
       inkscape:stockid="Arrow1Send"
       orient="auto"
       refY="0"
       refX="0"
       id="Arrow1Send"
       style="overflow:visible"
       inkscape:isstock="true">
      <path
         id="path4373"
         d="M 0,0 5,-5 -12.5,0 5,5 0,0 Z"
         style="fill:#000000;fill-opacity:1;fill-rule:evenodd;stroke:#000000;stroke-width:1pt;stroke-opacity:1"
         transform="matrix(-0.2,0,0,-0.2,-1.2,0)"
         inkscape:connector-curvature="0" />
    </marker>
    <marker
       inkscape:stockid="Arrow1Mstart"
       orient="auto"
       refY="0"
       refX="0"
       id="Arrow1Mstart"
       style="overflow:visible"
       inkscape:isstock="true"
       inkscape:collect="always">
      <path
         id="path4364"
         d="M 0,0 5,-5 -12.5,0 5,5 0,0 Z"
         style="fill:#047f0d;fill-opacity:1;fill-rule:evenodd;stroke:#047f0d;stroke-width:1pt;stroke-opacity:1"
         transform="matrix(0.4,0,0,0.4,4,0)"
         inkscape:connector-curvature="0" />
    </marker>
    <marker
       inkscape:stockid="Arrow2Lstart"
       orient="auto"
       refY="0"
       refX="0"
       id="Arrow2Lstart"
       style="overflow:visible"
       inkscape:isstock="true">
      <path
         id="path4376"
         style="fill:#000000;fill-opacity:1;fill-rule:evenodd;stroke:#000000;stroke-width:0.625;stroke-linejoin:round;stroke-opacity:1"
         d="M 8.7185878,4.0337352 -2.2072895,0.01601326 8.7185884,-4.0017078 c -1.7454984,2.3720609 -1.7354408,5.6174519 -6e-7,8.035443 z"
         transform="matrix(1.1,0,0,1.1,1.1,0)"
         inkscape:connector-curvature="0" />
    </marker>
    <clipPath
       id="clipPath">
      <rect
         style="fill:none;fill-opacity:0.49659861;stroke:#000000;stroke-opacity:1"
         id="rect4212"
         width="40"
         height="160"
         x="390"
         y="222.36218" />
    </clipPath>
    <clipPath
       id="clipPathx">
      <rect
         y="232.36218"
         x="390"
         height="150"
         width="30"
         id="rect4237"
         style="fill:none;fill-opacity:0.49659861;stroke:#000000;stroke-opacity:1" />
    </clipPath>
    <clipPath
       clipPathUnits="userSpaceOnUse"
       id="clipPath4272">
      <rect
         style="fill:none;fill-opacity:1;stroke:#000000;stroke-opacity:1"
         id="rect4274"
         width="40"
         height="150"
         x="390"
         y="232.36218" />
    </clipPath>
    <clipPath
       clipPathUnits="userSpaceOnUse"
       id="clipPath4286">
      <rect
         style="fill:#ffc4c4;fill-opacity:1;stroke:#000000;stroke-width:1;stroke-miterlimit:4;stroke-dasharray:none;stroke-opacity:1"
         id="rect4288"
         width="30"
         height="180"
         x="522"
         y="212.36218" />
    </clipPath>
    <clipPath
       clipPathUnits="userSpaceOnUse"
       id="clipPath4301">
      <path
         clip-path="none"
         id="path4303"
         title="exp(-x*x/2)"
         d="m -226.01135,380.62428 c 4.46717,-0.66625 8.93434,-1.66947 13.40151,-3.43745 4.46717,-1.76797 8.93434,-4.31577 13.40152,-8.22318 4.46717,-3.90741 8.93434,-9.21508 13.40151,-16.33079 4.46717,-7.11571 8.93434,-16.08905 13.40151,-26.58619 4.46717,-10.49713 8.93434,-22.53056 13.40152,-34.64947 4.46717,-12.11891 8.93434,-24.26212 13.40151,-34.27783 4.46717,-10.01571 8.93434,-17.79752 13.40151,-21.71829 4.46717,-3.92077 8.93435,-3.91325 13.40152,0 4.46717,3.91325 8.93434,11.70686 13.40151,21.71829 4.46717,10.01144 8.93434,22.15892 13.40151,34.27783 4.46718,12.11891 8.93435,24.14946 13.40152,34.64947 4.46717,10.50001 8.93434,19.46694 13.40151,26.58619 4.46717,7.11925 8.93434,12.42065 13.40151,16.33079 4.46718,3.91014 8.93435,6.45364 13.40152,8.22318 4.46717,1.76955 8.93434,2.7712 13.40151,3.43745"
         style="fill:#ffc4c4;fill-opacity:1;stroke:#000000;stroke-width:1.29366648;stroke-opacity:1"
         inkscape:connector-curvature="0" />
    </clipPath>
    <clipPath
       clipPathUnits="userSpaceOnUse"
       id="clipPath4309">
      <rect
         style="fill:none;fill-opacity:1;stroke:#000000;stroke-width:0.93233514;stroke-miterlimit:4;stroke-dasharray:none;stroke-opacity:1"
         id="rect4311"
         width="26.067665"
         height="180.06766"
         x="-266.03384"
         y="212.32835" />
    </clipPath>
    <clipPath
       clipPathUnits="userSpaceOnUse"
       id="clipPath4346">
      <path
         inkscape:connector-curvature="0"
         style="fill:none;fill-opacity:1;stroke:#000000;stroke-width:1.29366648;stroke-opacity:1"
         d="m -150.01135,380.62428 c 4.46717,-0.66625 8.93434,-1.66947 13.40151,-3.43745 4.46717,-1.76797 8.93434,-4.31577 13.40152,-8.22318 4.46717,-3.90741 8.93434,-9.21508 13.40151,-16.33079 4.46717,-7.11571 8.93434,-16.08905 13.40151,-26.58619 4.46717,-10.49713 8.93434,-22.53056 13.40152,-34.64947 4.46717,-12.11891 8.93434,-24.26212 13.40151,-34.27783 4.46717,-10.01571 8.93434,-17.79752 13.40151,-21.71829 4.46717,-3.92077 8.93435,-3.91325 13.40152,0 4.46717,3.91325 8.93434,11.70686 13.40151,21.71829 4.46717,10.01144 8.93434,22.15892 13.40151,34.27783 4.46718,12.11891 8.93435,24.14946 13.40152,34.64947 4.46717,10.50001 8.93434,19.46694 13.40151,26.58619 4.46717,7.11925 8.93434,12.42065 13.40151,16.33079 4.46718,3.91014 8.93435,6.45364 13.40152,8.22318 4.46717,1.76955 8.93434,2.7712 13.40151,3.43745"
         title="exp(-x*x/2)"
         id="path4348"
         clip-path="url(#clipPath4301)"
         transform="translate(-154,0)" />
    </clipPath>
    <linearGradient
       inkscape:collect="always"
       xlink:href="#linearGradient4274"
       id="linearGradient4280" />
    <marker
       inkscape:stockid="Arrow1Mstart"
       orient="auto"
       refY="0"
       refX="0"
       id="Arrow1Mstart-8"
       style="overflow:visible"
       inkscape:isstock="true"
       inkscape:collect="always">
      <path
         id="path4364-4"
         d="M 0,0 5,-5 -12.5,0 5,5 0,0 Z"
         style="fill:#047f0d;fill-opacity:1;fill-rule:evenodd;stroke:#047f0d;stroke-width:1pt;stroke-opacity:1"
         transform="matrix(0.4,0,0,0.4,4,0)"
         inkscape:connector-curvature="0" />
    </marker>
    <marker
       inkscape:stockid="Arrow1Mend"
       orient="auto"
       refY="0"
       refX="0"
       id="Arrow1Mend-6"
       style="overflow:visible"
       inkscape:isstock="true"
       inkscape:collect="always">
      <path
         id="path4367-4"
         d="M 0,0 5,-5 -12.5,0 5,5 0,0 Z"
         style="fill:#047f0d;fill-opacity:1;fill-rule:evenodd;stroke:#047f0d;stroke-width:1pt;stroke-opacity:1"
         transform="matrix(-0.4,0,0,-0.4,-4,0)"
         inkscape:connector-curvature="0" />
    </marker>
  </defs>
  <metadata
     id="metadata7">
    <rdf:RDF>
      <cc:Work
         rdf:about="">
        <dc:format>image/svg+xml</dc:format>
        <dc:type
           rdf:resource="http://purl.org/dc/dcmitype/StillImage" />
        <dc:title></dc:title>
      </cc:Work>
    </rdf:RDF>
  </metadata>
  <g
     inkscape:label="Layer 1"
     inkscape:groupmode="layer"
     id="layer1"
     transform="translate(0,-485.43305)">
    <path
       id="path4162"
       title="exp(-x*x/2)"
       d="m 235.83765,883.94661 c 2.09155,-4.32841 4.18309,-8.65745 6.27463,-12.90594 2.09155,-4.2485 4.18308,-8.41559 6.27463,-12.41521 2.09154,-3.99962 4.18309,-7.83035 6.27463,-11.40707 2.09154,-3.57673 4.18309,-6.89749 6.27463,-9.88454 2.09155,-2.98704 4.18308,-5.63797 6.27463,-7.88861 2.09154,-2.25063 4.18309,-4.09825 6.27463,-5.49771 2.09154,-1.39945 4.18309,-2.34787 6.27463,-2.82304 2.09154,-0.47517 4.18308,-0.47422 6.27463,0 2.09154,0.47423 4.18308,1.42448 6.27463,2.82304 2.09154,1.39856 4.18309,3.24788 6.27463,5.49771 2.09154,2.24984 4.18308,4.90224 6.27462,7.88861 2.09155,2.98638 4.18309,6.30832 6.27464,9.88454 2.09154,3.57621 4.18308,7.40778 6.27463,11.40707 2.09154,3.99928 4.18308,8.16688 6.27462,12.41521 2.09155,4.24833 4.18309,8.57753 6.27463,12.90594"
       style="fill:none"
       inkscape:connector-curvature="0" />
    <path
       inkscape:connector-curvature="0"
       style="fill:#ffebad;fill-opacity:1;stroke:#000000;stroke-width:1.29366648;stroke-opacity:1"
       d="m 53.988648,749.23221 c 4.467172,-0.66625 8.934342,-1.66947 13.401512,-3.43745 4.46717,-1.76797 8.93434,-4.31577 13.40152,-8.22318 4.46717,-3.90741 8.93434,-9.21508 13.40151,-16.33079 4.46717,-7.11571 8.93434,-16.08905 13.40151,-26.58619 4.46717,-10.49713 8.93434,-22.53056 13.40152,-34.64947 4.46717,-12.11891 8.93434,-24.26212 13.40151,-34.27783 4.46717,-10.01571 8.93434,-17.79752 13.40151,-21.71829 4.46717,-3.92077 8.93435,-3.91325 13.40152,0 4.46717,3.91325 8.93434,11.70686 13.40151,21.71829 4.46717,10.01144 8.93434,22.15892 13.40151,34.27783 4.46718,12.11891 8.93435,24.14946 13.40152,34.64947 4.46717,10.50001 8.93434,19.46694 13.40151,26.58619 4.46717,7.11925 8.93434,12.42065 13.40151,16.33079 4.46718,3.91014 8.93435,6.45364 13.40152,8.22318 4.46717,1.76955 8.93434,2.7712 13.40151,3.43745"
       title="exp(-x*x/2)"
       id="path4179" />
    <path
       id="path4305"
       title="exp(-x*x/2)"
       d="m -380.01135,380.62428 c 4.46717,-0.66625 8.93434,-1.66947 13.40151,-3.43745 4.46717,-1.76797 8.93434,-4.31577 13.40152,-8.22318 4.46717,-3.90741 8.93434,-9.21508 13.40151,-16.33079 4.46717,-7.11571 8.93434,-16.08905 13.40151,-26.58619 4.46717,-10.49713 8.93434,-22.53056 13.40152,-34.64947 4.46717,-12.11891 8.93434,-24.26212 13.40151,-34.27783 4.46717,-10.01571 8.93434,-17.79752 13.40151,-21.71829 4.46717,-3.92077 8.93435,-3.91325 13.40152,0 4.46717,3.91325 8.93434,11.70686 13.40151,21.71829 4.46717,10.01144 8.93434,22.15892 13.40151,34.27783 4.46718,12.11891 8.93435,24.14946 13.40152,34.64947 4.46717,10.50001 8.93434,19.46694 13.40151,26.58619 4.46717,7.11925 8.93434,12.42065 13.40151,16.33079 4.46718,3.91014 8.93435,6.45364 13.40152,8.22318 4.46717,1.76955 8.93434,2.7712 13.40151,3.43745"
       style="fill:#ffcbcb;fill-opacity:1;stroke:#000000;stroke-width:1.29366648;stroke-opacity:1"
       inkscape:connector-curvature="0"
       clip-path="url(#clipPath4309)"
       transform="translate(434,368.60793)" />
    <path
       inkscape:connector-curvature="0"
       style="fill:#b9ffc5;fill-opacity:1;stroke:#000000;stroke-width:1.29400003;stroke-miterlimit:4;stroke-dasharray:none;stroke-opacity:1"
       d="m 129.98865,749.23221 c 4.46717,-0.66625 8.93434,-1.66947 13.40151,-3.43745 4.46717,-1.76797 8.93434,-4.31577 13.40152,-8.22318 4.46717,-3.90741 8.93434,-9.21508 13.40151,-16.33079 4.46717,-7.11571 8.93434,-16.08905 13.40151,-26.58619 4.46717,-10.49713 8.93434,-22.53056 13.40152,-34.64947 4.46717,-12.11891 8.93434,-24.26212 13.40151,-34.27783 4.46717,-10.01571 8.93434,-17.79752 13.40151,-21.71829 4.46717,-3.92077 8.93435,-3.91325 13.40152,0 4.46717,3.91325 8.93434,11.70686 13.40151,21.71829 4.46717,10.01144 8.93434,22.15892 13.40151,34.27783 4.46718,12.11891 8.93435,24.14946 13.40152,34.64947 4.46717,10.50001 8.93434,19.46694 13.40151,26.58619 4.46717,7.11925 8.93434,12.42065 13.40151,16.33079 4.46718,3.91014 8.93435,6.45364 13.40152,8.22318 4.46717,1.76955 8.93434,2.7712 13.40151,3.43745"
       title="exp(-x*x/2)"
       id="path4292" />
    <path
       clip-path="url(#clipPath4346)"
       inkscape:connector-curvature="0"
       style="fill:#ba917b;fill-opacity:1;stroke:#000000;stroke-width:1.29366648;stroke-opacity:1"
       d="m -380.01135,380.62428 c 4.46717,-0.66625 8.93434,-1.66947 13.40151,-3.43745 4.46717,-1.76797 8.93434,-4.31577 13.40152,-8.22318 4.46717,-3.90741 8.93434,-9.21508 13.40151,-16.33079 4.46717,-7.11571 8.93434,-16.08905 13.40151,-26.58619 4.46717,-10.49713 8.93434,-22.53056 13.40152,-34.64947 4.46717,-12.11891 8.93434,-24.26212 13.40151,-34.27783 4.46717,-10.01571 8.93434,-17.79752 13.40151,-21.71829 4.46717,-3.92077 8.93435,-3.91325 13.40152,0 4.46717,3.91325 8.93434,11.70686 13.40151,21.71829 4.46717,10.01144 8.93434,22.15892 13.40151,34.27783 4.46718,12.11891 8.93435,24.14946 13.40152,34.64947 4.46717,10.50001 8.93434,19.46694 13.40151,26.58619 4.46717,7.11925 8.93434,12.42065 13.40151,16.33079 4.46718,3.91014 8.93435,6.45364 13.40152,8.22318 4.46717,1.76955 8.93434,2.7712 13.40151,3.43745"
       title="exp(-x*x/2)"
       id="path4340"
       transform="translate(434,368.60793)" />
    <path
       inkscape:connector-curvature="0"
       style="fill:#c4c4ff;fill-opacity:1;stroke:#000000;stroke-width:1.29366648;stroke-opacity:1"
       d="m 389.98865,380.62428 c 4.46717,-0.66625 8.93434,-1.66947 13.40151,-3.43745 4.46717,-1.76797 8.93434,-4.31577 13.40152,-8.22318 4.46717,-3.90741 8.93434,-9.21508 13.40151,-16.33079 4.46717,-7.11571 8.93434,-16.08905 13.40151,-26.58619 4.46717,-10.49713 8.93434,-22.53056 13.40152,-34.64947 4.46717,-12.11891 8.93434,-24.26212 13.40151,-34.27783 4.46717,-10.01571 8.93434,-17.79752 13.40151,-21.71829 4.46717,-3.92077 8.93435,-3.91325 13.40152,0 4.46717,3.91325 8.93434,11.70686 13.40151,21.71829 4.46717,10.01144 8.93434,22.15892 13.40151,34.27783 4.46718,12.11891 8.93435,24.14946 13.40152,34.64947 4.46717,10.50001 8.93434,19.46694 13.40151,26.58619 4.46717,7.11925 8.93434,12.42065 13.40151,16.33079 4.46718,3.91014 8.93435,6.45364 13.40152,8.22318 4.46717,1.76955 8.93434,2.7712 13.40151,3.43745"
       title="exp(-x*x/2)"
       id="path4266"
       clip-path="url(#clipPath4272)"
       transform="translate(-262,368.60793)" />
    <path
       style="fill:none;fill-rule:evenodd;stroke:#000000;stroke-width:3;stroke-linecap:butt;stroke-linejoin:miter;stroke-miterlimit:4;stroke-dasharray:none;stroke-opacity:1"
       d="m 168,540.97011 0,230"
       id="path4276"
       inkscape:connector-curvature="0" />
    <path
       style="fill:none;fill-rule:evenodd;stroke:#000000;stroke-width:2;stroke-linecap:butt;stroke-linejoin:miter;stroke-miterlimit:4;stroke-dasharray:none;stroke-opacity:1"
       d="m 16,748.97011 370,0"
       id="path4350"
       inkscape:connector-curvature="0" />
    <path
       style="fill:none;fill-rule:evenodd;stroke:#047f0d;stroke-width:2;stroke-linecap:butt;stroke-linejoin:miter;stroke-miterlimit:4;stroke-dasharray:none;stroke-opacity:1;marker-start:url(#Arrow1Mstart);marker-end:url(#Arrow1Mend)"
       d="m 102,532.97011 130,0"
       id="path4352"
       inkscape:connector-curvature="0" />
    <rect
       style="fill:#b9ffc5;fill-opacity:1;stroke:#000000;stroke-width:2;stroke-miterlimit:4;stroke-dasharray:none;stroke-opacity:1"
       id="rect4802"
       width="90"
       height="40"
       x="390.38022"
       y="578.23297" />
    <rect
       y="618.23297"
       x="390.38022"
       height="40"
       width="90"
       id="rect4804"
       style="fill:#e0e0e0;fill-opacity:1;stroke:#000000;stroke-width:2;stroke-miterlimit:4;stroke-dasharray:none;stroke-opacity:1" />
    <rect
       y="578.23297"
       x="480.38019"
       height="40"
       width="90"
       id="rect4806"
       style="fill:#ffcbcb;fill-opacity:1;stroke:#000000;stroke-width:2;stroke-miterlimit:4;stroke-dasharray:none;stroke-opacity:1" />
    <rect
       style="fill:#ffebad;fill-opacity:1;stroke:#000000;stroke-width:2;stroke-miterlimit:4;stroke-dasharray:none;stroke-opacity:1"
       id="rect4808"
       width="90"
       height="40"
       x="480.38019"
       y="618.23297" />
    <text
       xml:space="preserve"
       style="font-style:normal;font-variant:normal;font-weight:normal;font-stretch:normal;font-size:25px;line-height:125%;font-family:sans-serif;-inkscape-font-specification:'sans-serif, Normal';text-align:center;letter-spacing:0px;word-spacing:0px;writing-mode:lr-tb;text-anchor:middle;fill:#000000;fill-opacity:1;stroke:none;stroke-width:1px;stroke-linecap:butt;stroke-linejoin:miter;stroke-opacity:1"
       x="436.38022"
       y="608.23297"
       id="text4810"
       sodipodi:linespacing="125%"><tspan
         sodipodi:role="line"
         id="tspan4812"
         x="436.38022"
         y="608.23297">TP</tspan></text>
    <text
       sodipodi:linespacing="125%"
       id="text4814"
       y="648.23297"
       x="436.38022"
       style="font-style:normal;font-variant:normal;font-weight:normal;font-stretch:normal;font-size:25px;line-height:125%;font-family:sans-serif;-inkscape-font-specification:'sans-serif, Normal';text-align:center;letter-spacing:0px;word-spacing:0px;writing-mode:lr-tb;text-anchor:middle;fill:#000000;fill-opacity:1;stroke:none;stroke-width:1px;stroke-linecap:butt;stroke-linejoin:miter;stroke-opacity:1"
       xml:space="preserve"><tspan
         sodipodi:role="line"
         id="tspan4818"
         x="436.38022"
         y="648.23297">FN</tspan></text>
    <text
       xml:space="preserve"
       style="font-style:normal;font-variant:normal;font-weight:normal;font-stretch:normal;font-size:25px;line-height:125%;font-family:sans-serif;-inkscape-font-specification:'sans-serif, Normal';text-align:center;letter-spacing:0px;word-spacing:0px;writing-mode:lr-tb;text-anchor:middle;fill:#000000;fill-opacity:1;stroke:none;stroke-width:1px;stroke-linecap:butt;stroke-linejoin:miter;stroke-opacity:1"
       x="526.38019"
       y="648.23297"
       id="text4820"
       sodipodi:linespacing="125%"><tspan
         sodipodi:role="line"
         id="tspan4824"
         x="526.38019"
         y="648.23297">TN</tspan></text>
    <text
       sodipodi:linespacing="125%"
       id="text4826"
       y="608.23297"
       x="526.38019"
       style="font-style:normal;font-variant:normal;font-weight:normal;font-stretch:normal;font-size:25px;line-height:125%;font-family:sans-serif;-inkscape-font-specification:'sans-serif, Normal';text-align:center;letter-spacing:0px;word-spacing:0px;writing-mode:lr-tb;text-anchor:middle;fill:#000000;fill-opacity:1;stroke:none;stroke-width:1px;stroke-linecap:butt;stroke-linejoin:miter;stroke-opacity:1"
       xml:space="preserve"><tspan
         sodipodi:role="line"
         id="tspan4830"
         x="526.38019"
         y="608.23297">FP</tspan></text>
    <text
       xml:space="preserve"
       style="font-style:normal;font-variant:normal;font-weight:normal;font-stretch:normal;font-size:15px;line-height:125%;font-family:sans-serif;-inkscape-font-specification:'sans-serif, Normal';text-align:center;letter-spacing:0px;word-spacing:0px;writing-mode:lr-tb;text-anchor:middle;fill:#000000;fill-opacity:1;stroke:none;stroke-width:1px;stroke-linecap:butt;stroke-linejoin:miter;stroke-opacity:1"
       x="230"
       y="650.97015"
       id="text4832"
       sodipodi:linespacing="125%"><tspan
         sodipodi:role="line"
         id="tspan4834"
         x="230"
         y="650.97015">TP</tspan></text>
    <text
       sodipodi:linespacing="125%"
       id="text4836"
       y="676.97015"
       x="180"
       style="font-style:normal;font-variant:normal;font-weight:normal;font-stretch:normal;font-size:15px;line-height:125%;font-family:sans-serif;-inkscape-font-specification:'sans-serif, Normal';text-align:center;letter-spacing:0px;word-spacing:0px;writing-mode:lr-tb;text-anchor:middle;fill:#000000;fill-opacity:1;stroke:none;stroke-width:1px;stroke-linecap:butt;stroke-linejoin:miter;stroke-opacity:1"
       xml:space="preserve"><tspan
         sodipodi:role="line"
         id="tspan4840"
         x="180"
         y="676.97015">FP</tspan></text>
    <text
       xml:space="preserve"
       style="font-style:normal;font-variant:normal;font-weight:normal;font-stretch:normal;font-size:15px;line-height:125%;font-family:sans-serif;-inkscape-font-specification:'sans-serif, Normal';text-align:center;letter-spacing:0px;word-spacing:0px;writing-mode:lr-tb;text-anchor:middle;fill:#000000;fill-opacity:1;stroke:none;stroke-width:1px;stroke-linecap:butt;stroke-linejoin:miter;stroke-opacity:1"
       x="140"
       y="698.97015"
       id="text4842"
       sodipodi:linespacing="125%"><tspan
         sodipodi:role="line"
         id="tspan4846"
         x="140"
         y="698.97015">TN</tspan></text>
    <text
       sodipodi:linespacing="125%"
       id="text4848"
       y="768.97015"
       x="134"
       style="font-style:normal;font-variant:normal;font-weight:normal;font-stretch:normal;font-size:15px;line-height:125%;font-family:sans-serif;-inkscape-font-specification:'sans-serif, Normal';text-align:center;letter-spacing:0px;word-spacing:0px;writing-mode:lr-tb;text-anchor:middle;fill:#000000;fill-opacity:1;stroke:none;stroke-width:1px;stroke-linecap:butt;stroke-linejoin:miter;stroke-opacity:1"
       xml:space="preserve"><tspan
         sodipodi:role="line"
         id="tspan4852"
         x="134"
         y="768.97015">FN</tspan></text>
    <path
       style="fill:#e0e0e0;fill-opacity:1;fill-rule:evenodd;stroke:#000000;stroke-width:1px;stroke-linecap:butt;stroke-linejoin:miter;stroke-opacity:1"
       d="m 146,760.97011 13,-20"
       id="path4854"
       inkscape:connector-curvature="0"
       sodipodi:nodetypes="cc" />
    <rect
       style="fill:none;fill-opacity:0.6258503;stroke:#000000;stroke-width:1.84185767;stroke-miterlimit:4;stroke-dasharray:none;stroke-opacity:1"
       id="rect4856"
       width="217.67545"
       height="214.68135"
       x="297.93628"
       y="804.07098" />
    <path
       style="fill:none;fill-rule:evenodd;stroke:#000000;stroke-width:2.16082048;stroke-linecap:butt;stroke-linejoin:miter;stroke-miterlimit:4;stroke-dasharray:none;stroke-opacity:1;marker-start:url(#marker5038);marker-end:url(#marker4888)"
       d="m 536.94013,1018.8437 -238.69239,-1.13 0,-237.27992"
       id="path4858"
       inkscape:connector-curvature="0"
       sodipodi:nodetypes="cc" />
    <path
       style="fill:none;fill-rule:evenodd;stroke:#000000;stroke-width:1.84185767;stroke-linecap:butt;stroke-linejoin:miter;stroke-miterlimit:4;stroke-dasharray:7.36743081, 3.68371541, 1.8418577, 3.68371541;stroke-dashoffset:0;stroke-opacity:1"
       d="m 297.93627,1018.7522 c 7.50604,0 217.67546,-214.68128 217.67546,-214.68128"
       id="path5076"
       inkscape:connector-curvature="0" />
    <path
       style="fill:none;fill-rule:evenodd;stroke:#000000;stroke-width:1.84185767;stroke-linecap:butt;stroke-linejoin:miter;stroke-miterlimit:4;stroke-dasharray:5.5255731, 5.5255731;stroke-dashoffset:0;stroke-opacity:1"
       d="m 299.43749,1017.6223 c -1.50122,-66.66415 25.52055,-105.08082 56.29536,-137.84797 65.48199,-58.07028 144.86678,-75.70341 158.37767,-74.57351"
       id="path5078"
       inkscape:connector-curvature="0"
       sodipodi:nodetypes="ccc" />
    <ellipse
       style="fill:#000000;fill-opacity:1;stroke:#000000;stroke-width:0;stroke-miterlimit:4;stroke-dasharray:none;stroke-dashoffset:0;stroke-opacity:1"
       id="path6162"
       cx="370.47867"
       cy="867.49475"
       rx="4.6653857"
       ry="4.6654954" />
    <path
       inkscape:connector-curvature="0"
       id="path6179"
       d="m 332.76938,879.86286 57.18603,-47.63294"
       style="fill:none;fill-rule:evenodd;stroke:#047f0d;stroke-width:1.84185767;stroke-linecap:butt;stroke-linejoin:miter;stroke-miterlimit:4;stroke-dasharray:none;stroke-opacity:1;marker-start:url(#marker6181);marker-end:url(#marker6191)"
       sodipodi:nodetypes="cc" />
    <path
       style="fill:none;fill-rule:evenodd;stroke:#047f0d;stroke-width:2;stroke-linecap:butt;stroke-linejoin:miter;stroke-miterlimit:4;stroke-dasharray:none;stroke-opacity:1;marker-start:url(#Arrow1Mstart-8);marker-end:url(#Arrow1Mend-6)"
       d="m 3.8200275,5.0108537 130.0000025,0"
       id="path4352-8"
       inkscape:connector-curvature="0" />
    <flowRoot
       xml:space="preserve"
       id="flowRoot5797"
       style="font-style:normal;font-weight:normal;font-size:40px;line-height:125%;font-family:sans-serif;letter-spacing:0px;word-spacing:0px;fill:#000000;fill-opacity:1;stroke:none;stroke-width:1px;stroke-linecap:butt;stroke-linejoin:miter;stroke-opacity:1"><flowRegion
         id="flowRegion5799"><rect
           id="rect5801"
           width="125.91063"
           height="144.15854"
           x="45.619793"
           y="332.59378" /></flowRegion><flowPara
         id="flowPara5803"></flowPara></flowRoot>    <text
       xml:space="preserve"
       style="font-style:normal;font-weight:normal;font-size:15px;line-height:125%;font-family:sans-serif;letter-spacing:0px;word-spacing:0px;fill:#000000;fill-opacity:1;stroke:none;stroke-width:1px;stroke-linecap:butt;stroke-linejoin:miter;stroke-opacity:1"
       x="161.80811"
       y="790.36224"
       id="text5805"
       sodipodi:linespacing="125%"><tspan
         sodipodi:role="line"
         id="tspan5807"
         x="161.80811"
         y="790.36224"
         style="font-size:20px">β</tspan></text>
    <text
       xml:space="preserve"
       style="font-style:normal;font-weight:normal;font-size:40px;line-height:125%;font-family:sans-serif;letter-spacing:0px;word-spacing:0px;fill:#000000;fill-opacity:1;stroke:none;stroke-width:1px;stroke-linecap:butt;stroke-linejoin:miter;stroke-opacity:1"
       x="172.44279"
       y="897.25494"
       id="text6015"
       sodipodi:linespacing="125%"><tspan
         sodipodi:role="line"
         id="tspan6017"
         x="172.44279"
         y="897.25494"></tspan></text>
    <text
       xml:space="preserve"
       style="font-style:normal;font-weight:normal;font-size:20px;line-height:125%;font-family:sans-serif;letter-spacing:0px;word-spacing:0px;fill:#000000;fill-opacity:1;stroke:none;stroke-width:1px;stroke-linecap:butt;stroke-linejoin:miter;stroke-opacity:1"
       x="-933.14734"
       y="287.87134"
       id="text6019"
       sodipodi:linespacing="125%"
       transform="matrix(0,-1,1,0,0,0)"><tspan
         sodipodi:role="line"
         id="tspan6021"
         x="-933.14734"
         y="287.87134"
         style="font-weight:normal">TPR</tspan></text>
    <text
       xml:space="preserve"
       style="font-style:normal;font-weight:normal;font-size:20px;line-height:125%;font-family:sans-serif;letter-spacing:0px;word-spacing:0px;fill:#000000;fill-opacity:1;stroke:none;stroke-width:1px;stroke-linecap:butt;stroke-linejoin:miter;stroke-opacity:1"
       x="382.98508"
       y="1042.4647"
       id="text6031"
       sodipodi:linespacing="125%"><tspan
         sodipodi:role="line"
         id="tspan6033"
         x="382.98508"
         y="1042.4647"
         style="font-weight:normal">FPR</tspan></text>
    <text
       xml:space="preserve"
       style="font-style:normal;font-weight:normal;font-size:20px;line-height:125%;font-family:sans-serif;letter-spacing:0px;word-spacing:0px;fill:#000000;fill-opacity:1;stroke:none;stroke-width:1px;stroke-linecap:butt;stroke-linejoin:miter;stroke-opacity:1"
       x="260.66092"
       y="1042.2532"
       id="text6035"
       sodipodi:linespacing="125%"><tspan
         sodipodi:role="line"
         id="tspan6037"
         x="260.66092"
         y="1042.2532">0%</tspan></text>
    <text
       xml:space="preserve"
       style="font-style:normal;font-weight:normal;font-size:20px;line-height:125%;font-family:sans-serif;letter-spacing:0px;word-spacing:0px;fill:#000000;fill-opacity:1;stroke:none;stroke-width:1px;stroke-linecap:butt;stroke-linejoin:miter;stroke-opacity:1"
       x="233.33548"
       y="810.7915"
       id="text6039"
       sodipodi:linespacing="125%"><tspan
         sodipodi:role="line"
         id="tspan6041"
         x="233.33548"
         y="810.7915">100%</tspan></text>
    <text
       xml:space="preserve"
       style="font-style:normal;font-weight:normal;font-size:20px;line-height:125%;font-family:sans-serif;letter-spacing:0px;word-spacing:0px;fill:#000000;fill-opacity:1;stroke:none;stroke-width:1px;stroke-linecap:butt;stroke-linejoin:miter;stroke-opacity:1"
       x="485.61414"
       y="1040.9932"
       id="text6039-3"
       sodipodi:linespacing="125%"><tspan
         sodipodi:role="line"
         id="tspan6041-1"
         x="485.61414"
         y="1040.9932">100%</tspan></text>
  </g>
</svg>
