<svg xmlns="http://www.w3.org/2000/svg" enable-background="new 0 0 462 462" viewBox="0 0 462 462" version="1.1">
  <g>
    <path d="m 167 142 c 4.142 0 7.5 -3.358 7.5 -7.5 v -8 c 0 -4.142 -3.358 -7.5 -7.5 -7.5 s -7.5 3.358 -7.5 7.5 v 8 c 0 4.142 3.357 7.5 7.5 7.5 Z" />
    <path d="m 295 142 c 4.142 0 7.5 -3.358 7.5 -7.5 v -8 c 0 -4.142 -3.358 -7.5 -7.5 -7.5 s -7.5 3.358 -7.5 7.5 v 8 c 0 4.142 3.357 7.5 7.5 7.5 Z" />
    <path d="m 382.5 336.234 v -67.468 c 9.29 -3.138 16 -11.93 16 -22.266 c 0 -12.958 -10.542 -23.5 -23.5 -23.5 h -34.11 c 10.826 -10.135 17.61 -24.536 17.61 -40.5 v -80 c 0 -30.603 -24.897 -55.5 -55.5 -55.5 h -24.5 v -20.114 c 4.188 -2.546 7 -7.138 7 -12.386 c 0 -7.995 -6.505 -14.5 -14.5 -14.5 s -14.5 6.505 -14.5 14.5 c 0 5.248 2.812 9.84 7 12.386 v 20.114 h -65 v -20.114 c 4.188 -2.546 7 -7.138 7 -12.386 c 0 -7.995 -6.505 -14.5 -14.5 -14.5 s -14.5 6.505 -14.5 14.5 c 0 5.248 2.812 9.84 7 12.386 v 20.114 h -24.5 c -30.603 0 -55.5 24.897 -55.5 55.5 v 80 c 0 15.964 6.784 30.365 17.61 40.5 h -34.11 c -12.958 0 -23.5 10.542 -23.5 23.5 c 0 10.336 6.71 19.128 16 22.266 v 67.468 c -9.29 3.138 -16 11.93 -16 22.266 v 16 c 0 4.142 3.358 7.5 7.5 7.5 s 7.5 -3.358 7.5 -7.5 v -16 c 0 -4.687 3.813 -8.5 8.5 -8.5 c 4.687 0 8.5 3.813 8.5 8.5 v 16 c 0 4.142 3.358 7.5 7.5 7.5 s 7.5 -3.358 7.5 -7.5 v -16 c 0 -10.336 -6.71 -19.128 -16 -22.266 v -66.234 h 33 v 72.5 c 0 12.958 10.542 23.5 23.5 23.5 h 9.409 c 1.245 5.075 3.72 9.669 7.093 13.449 c 0 0.017 -0.003 0.034 -0.003 0.051 v 35.5 h -8.499 c -21.78 0 -39.5 17.72 -39.5 39.5 c 0 4.142 3.358 7.5 7.5 7.5 h 88 c 4.142 0 7.5 -3.358 7.5 -7.5 v -32 c 0 -4.142 -3.358 -7.5 -7.5 -7.5 h -0.5 v -35.5 c 0 -0.017 -0.002 -0.034 -0.003 -0.051 c 3.374 -3.78 5.849 -8.375 7.093 -13.449 h 18.819 c 1.245 5.075 3.72 9.669 7.093 13.449 c 0 0.017 -0.003 0.034 -0.003 0.051 v 35.5 h -0.499 c -4.142 0 -7.5 3.358 -7.5 7.5 v 32 c 0 4.142 3.358 7.5 7.5 7.5 h 88 c 4.142 0 7.5 -3.358 7.5 -7.5 c 0 -21.78 -17.72 -39.5 -39.5 -39.5 h -8.5 v -35.5 c 0 -0.017 -0.002 -0.034 -0.003 -0.051 c 3.374 -3.78 5.849 -8.375 7.093 -13.449 h 9.41 c 12.958 0 23.5 -10.542 23.5 -23.5 v -72.5 h 33 v 66.234 c -9.29 3.138 -16 11.93 -16 22.266 v 16 c 0 4.142 3.358 7.5 7.5 7.5 s 7.5 -3.358 7.5 -7.5 v -16 c 0 -4.687 3.813 -8.5 8.5 -8.5 s 8.5 3.813 8.5 8.5 v 16 c 0 4.142 3.358 7.5 7.5 7.5 s 7.5 -3.358 7.5 -7.5 v -16 c 0 -10.336 -6.71 -19.128 -16 -22.266 Z m -7.5 -81.234 c -4.687 0 -8.5 -3.813 -8.5 -8.5 s 3.813 -8.5 8.5 -8.5 s 8.5 3.813 8.5 8.5 s -3.813 8.5 -8.5 8.5 Z m -256.5 -152.5 c 0 -22.332 18.168 -40.5 40.5 -40.5 h 144 c 22.332 0 40.5 18.168 40.5 40.5 v 48 c 0 8.239 -16.171 16.553 -30.019 21.169 c -21.921 7.307 -51.213 11.331 -82.481 11.331 c -31.268 0 -60.561 -4.024 -82.481 -11.331 c -13.848 -4.616 -30.019 -12.93 -30.019 -21.169 v -48 Z m 0 80 v -8.518 c 5.971 4.143 14.148 8.208 25.275 11.918 c 23.41 7.803 54.387 12.1 87.225 12.1 s 63.815 -4.297 87.225 -12.101 c 11.128 -3.709 19.304 -7.775 25.275 -11.918 v 8.518 c 0 22.332 -18.168 40.5 -40.5 40.5 h -144 c -22.332 0.001 -40.5 -18.167 -40.5 -40.499 Z m -31.5 55.5 c 4.687 0 8.5 3.813 8.5 8.5 s -3.813 8.5 -8.5 8.5 c -4.687 0 -8.5 -3.813 -8.5 -8.5 s 3.813 -8.5 8.5 -8.5 Z m 21.903 17 c 1.027 -2.638 1.597 -5.503 1.597 -8.5 s -0.57 -5.862 -1.597 -8.5 h 18.597 v 17 h -18.597 Z m 98.597 192 h -71.826 c 3.175 -9.853 12.432 -17 23.326 -17 h 48.5 v 17 Z m -25 -32 v -26.175 c 2.706 0.76 5.555 1.175 8.5 1.175 s 5.794 -0.415 8.5 -1.175 v 26.175 h -17 Z m 8.5 -40 c -6.396 0 -11.942 -3.666 -14.679 -9 h 29.357 c -2.737 5.334 -8.282 9 -14.678 9 Z m 135.326 72 h -71.826 v -17 h 48.5 c 10.894 0 20.151 7.147 23.326 17 Z m -63.826 -32 v -26.175 c 2.706 0.76 5.555 1.175 8.5 1.175 s 5.794 -0.415 8.5 -1.175 v 26.175 h -17 Z m 8.5 -40 c -6.396 0 -11.942 -3.666 -14.679 -9 h 29.357 c -2.737 5.334 -8.282 9 -14.678 9 Z m 48.5 -32.5 c 0 4.687 -3.813 8.5 -8.5 8.5 h -160 c -4.687 0 -8.5 -3.813 -8.5 -8.5 v -107.004 c 5.215 1.627 10.757 2.504 16.5 2.504 h 144 c 5.743 0 11.286 -0.877 16.5 -2.504 v 107.004 Z m 15 -104.5 h 18.597 c -1.027 2.638 -1.597 5.503 -1.597 8.5 s 0.57 5.862 1.597 8.5 h -18.597 v -17 Z" />
    <path d="m 231 263 c -17.369 0 -31.5 14.131 -31.5 31.5 s 14.13 31.5 31.5 31.5 s 31.5 -14.131 31.5 -31.5 s -14.131 -31.5 -31.5 -31.5 Z m 0 48 c -9.098 0 -16.5 -7.402 -16.5 -16.5 s 7.401 -16.5 16.5 -16.5 s 16.5 7.402 16.5 16.5 s -7.402 16.5 -16.5 16.5 Z" />
    <path d="m 175 271 c -4.142 0 -7.5 3.358 -7.5 7.5 v 32 c 0 4.142 3.358 7.5 7.5 7.5 s 7.5 -3.358 7.5 -7.5 v -32 c 0 -4.142 -3.358 -7.5 -7.5 -7.5 Z" />
    <path d="m 287 271 c -4.142 0 -7.5 3.358 -7.5 7.5 v 32 c 0 4.142 3.358 7.5 7.5 7.5 s 7.5 -3.358 7.5 -7.5 v -32 c 0 -4.142 -3.358 -7.5 -7.5 -7.5 Z" />
  </g>
</svg>